<svg width="1400" height="600" viewBox="0 0 1400 600" fill="none" xmlns="http://www.w3.org/2000/svg">
<path d="M269.062 345.515C264.625 350.826 256.75 351.513 251.437 347.077C246.125 342.641 245.437 334.769 249.875 329.459L274.875 291.972C279.312 286.661 287.187 285.974 292.5 290.41C297.812 294.846 298.5 302.718 294.062 308.028L269.062 345.515Z" fill="black"/>
<path d="M309.5 349.951C316.404 349.951 322 344.357 322 337.456C322 330.555 316.404 324.96 309.5 324.96C302.596 324.96 297 330.555 297 337.456C297 344.357 302.596 349.951 309.5 349.951Z" fill="black"/>
<path d="M209.5 349.951C216.404 349.951 222 344.357 222 337.456C222 330.555 216.404 324.96 209.5 324.96C202.596 324.96 197 330.555 197 337.456C197 344.357 202.596 349.951 209.5 349.951Z" fill="black"/>
<path d="M244.062 308.028C239.625 313.339 231.75 314.026 226.437 309.59C221.125 305.154 220.437 297.282 224.875 291.972L249.875 254.485C254.312 249.174 262.187 248.487 267.5 252.923C272.812 257.359 273.5 265.231 269.062 270.541L244.062 308.028Z" fill="black"/>
<path d="M420.2 254.1H483.76V347.48H465.56V269.78H438.4V311.22C438.4 314.767 438.353 317.427 438.26 319.2C438.167 320.973 437.84 323.493 437.28 326.76C436.72 330.027 435.693 332.92 434.2 335.44C432.707 337.867 430.747 340.107 428.32 342.16C423.467 346.267 417.26 348.32 409.7 348.32C407.087 348.32 404.52 348.04 402 347.48V331.8C403.867 332.36 405.593 332.64 407.18 332.64C410.54 332.64 413.34 331.52 415.58 329.28C417.073 327.787 418.147 325.733 418.8 323.12C419.547 320.507 419.967 318.267 420.06 316.4C420.153 314.533 420.2 311.593 420.2 307.58V254.1Z" fill="black"/>
<path d="M514.409 265.72C523.742 256.573 535.736 252 550.389 252C565.042 252 576.989 256.573 586.229 265.72C595.562 274.867 600.229 286.58 600.229 300.86C600.229 315.14 595.562 326.853 586.229 336C576.989 345.053 565.042 349.58 550.389 349.58C535.736 349.58 523.742 345.053 514.409 336C505.169 326.853 500.549 315.14 500.549 300.86C500.549 286.58 505.169 274.867 514.409 265.72ZM527.989 324.1C533.776 330.073 541.242 333.06 550.389 333.06C559.536 333.06 567.002 330.073 572.789 324.1C578.576 318.033 581.469 310.287 581.469 300.86C581.469 291.433 578.529 283.687 572.649 277.62C566.862 271.553 559.442 268.52 550.389 268.52C541.336 268.52 533.869 271.553 527.989 277.62C522.202 283.687 519.309 291.433 519.309 300.86C519.309 310.287 522.202 318.033 527.989 324.1Z" fill="black"/>
<path d="M666.562 254.1V269.78H635.202V347.48H617.002V254.1H666.562Z" fill="black"/>
<path d="M677.978 254.1H696.178V316.82L747.698 252H760.298V347.48H742.098V284.48L690.578 349.3H677.978V254.1Z" fill="black"/>
<path d="M849.371 322.84V344.12C842.464 347.76 834.764 349.58 826.271 349.58C812.644 349.58 801.258 345.24 792.111 336.56C782.124 326.947 777.131 315.047 777.131 300.86C777.131 285.74 782.124 273.56 792.111 264.32C800.884 256.107 812.318 252 826.411 252C834.624 252 842.278 253.913 849.371 257.74V279.02C843.304 272.02 835.791 268.52 826.831 268.52C817.684 268.52 810.218 271.74 804.431 278.18C798.738 284.527 795.891 292.18 795.891 301.14C795.891 310.94 799.064 318.733 805.411 324.52C811.758 330.213 819.131 333.06 827.531 333.06C836.304 333.06 843.584 329.653 849.371 322.84Z" fill="black"/>
<path d="M916.503 269.78H895.503V347.48H877.303V269.78H856.303V254.1H916.503V269.78Z" fill="black"/>
<path d="M928.037 254.1H946.237V316.82L997.757 252H1010.36V347.48H992.157V284.48L940.637 349.3H928.037V254.1Z" fill="black"/>
<path d="M1049.87 254.1V293.58L1084.17 254.1H1107.13L1067.65 297.22L1109.23 347.48H1085.15L1051.97 305.62L1049.87 307.72V347.48H1031.67V254.1H1049.87Z" fill="black"/>
<path d="M1184.23 347.48L1175.97 327.88H1138.31L1130.05 347.48H1110.31L1150.77 252.14H1164.49L1203.83 347.48H1184.23ZM1144.05 313.04H1170.65L1157.49 279.44L1144.05 313.04Z" fill="black"/>
</svg>
