<?xml version="1.0" encoding="utf-8"?>
<!-- Generator: Adobe Illustrator 24.2.3, SVG Export Plug-In . SVG Version: 6.00 Build 0)  -->
<svg version="1.1" id="Слой_1" xmlns="http://www.w3.org/2000/svg" xmlns:xlink="http://www.w3.org/1999/xlink" x="0px" y="0px"
	 viewBox="0 0 1370 100" style="enable-background:new 0 0 1370 100;" xml:space="preserve">
<style type="text/css">
	.st0{fill:url(#SVGID_1_);}
	.st1{fill:url(#SVGID_2_);}
	.st2{fill:url(#SVGID_3_);}
	.st3{fill:url(#SVGID_4_);}
	.st4{fill:#172359;}
</style>
<linearGradient id="SVGID_1_" gradientUnits="userSpaceOnUse" x1="192" y1="31.2562" x2="242.0347" y2="31.2562" gradientTransform="matrix(1 0 0 -1 0 99.9994)">
	<stop  offset="0" style="stop-color:#729EFB"/>
	<stop  offset="0.4688" style="stop-color:#6986FB"/>
	<stop  offset="1" style="stop-color:#5D66FA"/>
</linearGradient>
<path class="st0" d="M239.1,95.5c-4.4,5.3-12.3,6-17.6,1.6c-5.3-4.4-6-12.3-1.6-17.6l25-37.5c4.4-5.3,12.3-6,17.6-1.6
	c5.3,4.4,6,12.3,1.6,17.6L239.1,95.5z"/>
<linearGradient id="SVGID_2_" gradientUnits="userSpaceOnUse" x1="192" y1="12.5442" x2="242" y2="12.5442" gradientTransform="matrix(1 0 0 -1 0 99.9994)">
	<stop  offset="0" style="stop-color:#729EFB"/>
	<stop  offset="0.4688" style="stop-color:#6986FB"/>
	<stop  offset="1" style="stop-color:#5D66FA"/>
</linearGradient>
<path class="st1" d="M279.5,100c6.9,0,12.5-5.6,12.5-12.5S286.4,75,279.5,75S267,80.6,267,87.5S272.6,100,279.5,100z"/>
<linearGradient id="SVGID_3_" gradientUnits="userSpaceOnUse" x1="192" y1="12.5442" x2="242" y2="12.5442" gradientTransform="matrix(1 0 0 -1 0 99.9994)">
	<stop  offset="0" style="stop-color:#729EFB"/>
	<stop  offset="0.4688" style="stop-color:#6986FB"/>
	<stop  offset="1" style="stop-color:#5D66FA"/>
</linearGradient>
<path class="st2" d="M179.5,100c6.9,0,12.5-5.6,12.5-12.5S186.4,75,179.5,75S167,80.6,167,87.5S172.6,100,179.5,100z"/>
<linearGradient id="SVGID_4_" gradientUnits="userSpaceOnUse" x1="191.9512" y1="68.7432" x2="241.9858" y2="68.7432" gradientTransform="matrix(1 0 0 -1 0 99.9994)">
	<stop  offset="0" style="stop-color:#729EFB"/>
	<stop  offset="0.4688" style="stop-color:#6986FB"/>
	<stop  offset="1" style="stop-color:#5D66FA"/>
</linearGradient>
<path class="st3" d="M214.1,58c-4.4,5.3-12.3,6-17.6,1.6c-5.3-4.4-6-12.3-1.6-17.6l25-37.5c4.4-5.3,12.3-6,17.6-1.6
	c5.3,4.4,6,12.3,1.6,17.6L214.1,58z"/>
<path class="st4" d="M390.2,4.1h63.6v93.4h-18.2V19.8h-27.2v41.4c0,3.5,0,6.2-0.1,8c-0.1,1.8-0.4,4.3-1,7.6s-1.6,6.2-3.1,8.7
	c-1.5,2.4-3.5,4.7-5.9,6.7c-4.9,4.1-11.1,6.2-18.6,6.2c-2.6,0-5.2-0.3-7.7-0.8V81.8c1.9,0.6,3.6,0.8,5.2,0.8c3.4,0,6.2-1.1,8.4-3.4
	c1.5-1.5,2.6-3.5,3.2-6.2c0.7-2.6,1.2-4.9,1.3-6.7c0.1-1.9,0.1-4.8,0.1-8.8V4.1z"/>
<path class="st4" d="M484.4,15.7c9.3-9.1,21.3-13.7,36-13.7C535,2,547,6.6,556.2,15.7c9.3,9.1,14,20.9,14,35.1
	c0,14.3-4.7,26-14,35.1c-9.2,9.1-21.2,13.6-35.8,13.6c-14.7,0-26.6-4.5-36-13.6c-9.2-9.1-13.9-20.9-13.9-35.1
	C470.5,36.6,475.2,24.9,484.4,15.7z M498,74.1c5.8,6,13.3,9,22.4,9c9.1,0,16.6-3,22.4-9c5.8-6.1,8.7-13.8,8.7-23.2
	c0-9.4-2.9-17.2-8.8-23.2c-5.8-6.1-13.2-9.1-22.3-9.1c-9.1,0-16.5,3-22.4,9.1c-5.8,6.1-8.7,13.8-8.7,23.2
	C489.3,60.3,492.2,68,498,74.1z"/>
<path class="st4" d="M636.6,4.1v15.7h-31.4v77.7H587V4.1H636.6z"/>
<path class="st4" d="M648,4.1h18.2v62.7L717.7,2h12.6v95.5h-18.2v-63l-51.5,64.8H648V4.1z"/>
<path class="st4" d="M819.4,72.8v21.3c-6.9,3.6-14.6,5.5-23.1,5.5c-13.6,0-25-4.3-34.2-13c-10-9.6-15-21.5-15-35.7
	c0-15.1,5-27.3,15-36.5C770.9,6.1,782.3,2,796.4,2c8.2,0,15.9,1.9,23,5.7V29c-6.1-7-13.6-10.5-22.5-10.5c-9.1,0-16.6,3.2-22.4,9.7
	c-5.7,6.3-8.5,14-8.5,23c0,9.8,3.2,17.6,9.5,23.4c6.3,5.7,13.7,8.5,22.1,8.5C806.3,83.1,813.6,79.7,819.4,72.8z"/>
<path class="st4" d="M886.5,19.8h-21v77.7h-18.2V19.8h-21V4.1h60.2V19.8z"/>
<path class="st4" d="M898,4.1h18.2v62.7L967.8,2h12.6v95.5h-18.2v-63l-51.5,64.8H898V4.1z"/>
<path class="st4" d="M1019.9,4.1v39.5l34.3-39.5h23l-39.5,43.1l41.6,50.3h-24.1L1022,55.6l-2.1,2.1v39.8h-18.2V4.1H1019.9z"/>
<path class="st4" d="M1154.2,97.5l-8.3-19.6h-37.7l-8.3,19.6h-19.7l40.5-95.3h13.7l39.3,95.3H1154.2z M1114.1,63h26.6l-13.2-33.6
	L1114.1,63z"/>
</svg>
