<?xml version="1.0" encoding="utf-8"?>
<!-- Generator: Adobe Illustrator 24.2.3, SVG Export Plug-In . SVG Version: 6.00 Build 0)  -->
<svg version="1.1" id="Слой_1" xmlns="http://www.w3.org/2000/svg" xmlns:xlink="http://www.w3.org/1999/xlink" x="0px" y="0px"
	 viewBox="0 0 125 100" style="enable-background:new 0 0 125 100;" xml:space="preserve">
<style type="text/css">
	.st0{fill:url(#SVGID_1_);}
	.st1{fill:url(#SVGID_2_);}
	.st2{fill:url(#SVGID_3_);}
	.st3{fill:url(#SVGID_4_);}
</style>
<linearGradient id="SVGID_1_" gradientUnits="userSpaceOnUse" x1="25" y1="-365.2615" x2="75.0347" y2="-365.2615" gradientTransform="matrix(1 0 0 1 0 434)">
	<stop  offset="0" style="stop-color:#729EFB"/>
	<stop  offset="0.4688" style="stop-color:#6986FB"/>
	<stop  offset="1" style="stop-color:#5D66FA"/>
</linearGradient>
<path class="st0" d="M72.1,95.5c-4.4,5.3-12.3,6-17.6,1.6c-5.3-4.4-6-12.3-1.6-17.6l25-37.5c4.4-5.3,12.3-6,17.6-1.6
	c5.3,4.4,6,12.3,1.6,17.6L72.1,95.5z"/>
<linearGradient id="SVGID_2_" gradientUnits="userSpaceOnUse" x1="25" y1="-346.5115" x2="75" y2="-346.5115" gradientTransform="matrix(1 0 0 1 0 434)">
	<stop  offset="0" style="stop-color:#729EFB"/>
	<stop  offset="0.4688" style="stop-color:#6986FB"/>
	<stop  offset="1" style="stop-color:#5D66FA"/>
</linearGradient>
<path class="st1" d="M112.5,100c6.9,0,12.5-5.6,12.5-12.5S119.4,75,112.5,75S100,80.6,100,87.5S105.6,100,112.5,100z"/>
<linearGradient id="SVGID_3_" gradientUnits="userSpaceOnUse" x1="25" y1="-346.5115" x2="75" y2="-346.5115" gradientTransform="matrix(1 0 0 1 0 434)">
	<stop  offset="0" style="stop-color:#729EFB"/>
	<stop  offset="0.4688" style="stop-color:#6986FB"/>
	<stop  offset="1" style="stop-color:#5D66FA"/>
</linearGradient>
<path class="st2" d="M12.5,100c6.9,0,12.5-5.6,12.5-12.5S19.4,75,12.5,75S0,80.6,0,87.5S5.6,100,12.5,100z"/>
<linearGradient id="SVGID_4_" gradientUnits="userSpaceOnUse" x1="24.9512" y1="-402.7615" x2="74.9858" y2="-402.7615" gradientTransform="matrix(1 0 0 1 0 434)">
	<stop  offset="0" style="stop-color:#729EFB"/>
	<stop  offset="0.4688" style="stop-color:#6986FB"/>
	<stop  offset="1" style="stop-color:#5D66FA"/>
</linearGradient>
<path class="st3" d="M47.1,58c-4.4,5.3-12.3,6-17.6,1.6s-6-12.3-1.6-17.6l25-37.5c4.4-5.3,12.3-6,17.6-1.6c5.3,4.4,6,12.3,1.6,17.6
	L47.1,58z"/>
</svg>
