<?xml version="1.0" encoding="utf-8"?>
<!-- Generator: Adobe Illustrator 24.2.3, SVG Export Plug-In . SVG Version: 6.00 Build 0)  -->
<svg version="1.1" id="Слой_1" xmlns="http://www.w3.org/2000/svg" xmlns:xlink="http://www.w3.org/1999/xlink" x="0px" y="0px"
	 viewBox="0 0 125 100" style="enable-background:new 0 0 125 100;" xml:space="preserve">
<style type="text/css">
	.st0{fill:#FFFFFF;}
</style>
<path class="st0" d="M72.1,95.5c-4.4,5.3-12.3,6-17.6,1.6c-5.3-4.4-6-12.3-1.6-17.6l25-37.5c4.4-5.3,12.3-6,17.6-1.6
	c5.3,4.4,6,12.3,1.6,17.6L72.1,95.5z"/>
<path class="st0" d="M112.5,100c6.9,0,12.5-5.6,12.5-12.5S119.4,75,112.5,75S100,80.6,100,87.5S105.6,100,112.5,100z"/>
<path class="st0" d="M12.5,100c6.9,0,12.5-5.6,12.5-12.5S19.4,75,12.5,75S0,80.6,0,87.5S5.6,100,12.5,100z"/>
<path class="st0" d="M47.1,58c-4.4,5.3-12.3,6-17.6,1.6s-6-12.3-1.6-17.6l25-37.5c4.4-5.3,12.3-6,17.6-1.6c5.3,4.4,6,12.3,1.6,17.6
	L47.1,58z"/>
</svg>
