<svg width="1600" height="1200" viewBox="0 0 1600 1200" fill="none" xmlns="http://www.w3.org/2000/svg">
<path d="M828.785 588.546C815.477 604.478 791.86 606.54 775.928 593.232C759.996 579.924 757.934 556.308 771.242 540.376L846.216 427.915C859.524 411.983 883.141 409.921 899.073 423.229C915.005 436.537 917.067 460.153 903.759 476.085L828.785 588.546Z" fill="black"/>
<path d="M950.055 601.854C970.759 601.854 987.542 585.071 987.542 564.367C987.542 543.664 970.759 526.88 950.055 526.88C929.352 526.88 912.568 543.664 912.568 564.367C912.568 585.071 929.352 601.854 950.055 601.854Z" fill="black"/>
<path d="M650.159 601.854C670.863 601.854 687.646 585.071 687.646 564.367C687.646 543.664 670.863 526.88 650.159 526.88C629.456 526.88 612.672 543.664 612.672 564.367C612.672 585.071 629.456 601.854 650.159 601.854Z" fill="black"/>
<path d="M753.811 476.085C740.503 492.017 716.886 494.079 700.954 480.771C685.022 467.463 682.96 443.847 696.268 427.915L771.242 315.454C784.55 299.522 808.167 297.46 824.099 310.768C840.031 324.076 842.093 347.692 828.785 363.624L753.811 476.085Z" fill="black"/>
<path d="M417.524 726.62H481.084V820H462.884V742.3H435.724V783.74C435.724 787.287 435.678 789.947 435.584 791.72C435.491 793.493 435.164 796.013 434.604 799.28C434.044 802.547 433.018 805.44 431.524 807.96C430.031 810.387 428.071 812.627 425.644 814.68C420.791 818.787 414.584 820.84 407.024 820.84C404.411 820.84 401.844 820.56 399.324 820V804.32C401.191 804.88 402.918 805.16 404.504 805.16C407.864 805.16 410.664 804.04 412.904 801.8C414.398 800.307 415.471 798.253 416.124 795.64C416.871 793.027 417.291 790.787 417.384 788.92C417.478 787.053 417.524 784.113 417.524 780.1V726.62Z" fill="black"/>
<path d="M511.733 738.24C521.067 729.093 533.06 724.52 547.713 724.52C562.367 724.52 574.313 729.093 583.553 738.24C592.887 747.387 597.553 759.1 597.553 773.38C597.553 787.66 592.887 799.373 583.553 808.52C574.313 817.573 562.367 822.1 547.713 822.1C533.06 822.1 521.067 817.573 511.733 808.52C502.493 799.373 497.873 787.66 497.873 773.38C497.873 759.1 502.493 747.387 511.733 738.24ZM525.313 796.62C531.1 802.593 538.567 805.58 547.713 805.58C556.86 805.58 564.327 802.593 570.113 796.62C575.9 790.553 578.793 782.807 578.793 773.38C578.793 763.953 575.853 756.207 569.973 750.14C564.187 744.073 556.767 741.04 547.713 741.04C538.66 741.04 531.193 744.073 525.313 750.14C519.527 756.207 516.633 763.953 516.633 773.38C516.633 782.807 519.527 790.553 525.313 796.62Z" fill="black"/>
<path d="M663.886 726.62V742.3H632.526V820H614.326V726.62H663.886Z" fill="black"/>
<path d="M675.302 726.62H693.503V789.34L745.022 724.52H757.622V820H739.423V757L687.902 821.82H675.302V726.62Z" fill="black"/>
<path d="M846.695 795.36V816.64C839.789 820.28 832.089 822.1 823.595 822.1C809.969 822.1 798.582 817.76 789.435 809.08C779.449 799.467 774.455 787.567 774.455 773.38C774.455 758.26 779.449 746.08 789.435 736.84C798.209 728.627 809.642 724.52 823.735 724.52C831.949 724.52 839.602 726.433 846.695 730.26V751.54C840.629 744.54 833.115 741.04 824.155 741.04C815.009 741.04 807.542 744.26 801.755 750.7C796.062 757.047 793.215 764.7 793.215 773.66C793.215 783.46 796.389 791.253 802.735 797.04C809.082 802.733 816.455 805.58 824.855 805.58C833.629 805.58 840.909 802.173 846.695 795.36Z" fill="black"/>
<path d="M913.828 742.3H892.828V820H874.628V742.3H853.628V726.62H913.828V742.3Z" fill="black"/>
<path d="M925.361 726.62H943.561V789.34L995.081 724.52H1007.68V820H989.481V757L937.961 821.82H925.361V726.62Z" fill="black"/>
<path d="M1047.19 726.62V766.1L1081.49 726.62H1104.45L1064.97 769.74L1106.55 820H1082.47L1049.29 778.14L1047.19 780.24V820H1028.99V726.62H1047.19Z" fill="black"/>
<path d="M1181.56 820L1173.3 800.4H1135.64L1127.38 820H1107.64L1148.1 724.66H1161.82L1201.16 820H1181.56ZM1141.38 785.56H1167.98L1154.82 751.96L1141.38 785.56Z" fill="black"/>
<path d="M419.96 888L416.84 880.48H405.48L402.28 888H399L411.28 860.04L423.24 888H419.96ZM406.64 877.68H415.68L411.2 867L406.64 877.68Z" fill="black"/>
<path d="M426.683 871.4H432.963C434.483 871.4 435.643 871.72 436.443 872.36C437.403 873.133 437.883 874.173 437.883 875.48C437.883 876.92 437.283 878.027 436.083 878.8C436.909 879.013 437.603 879.387 438.163 879.92C439.043 880.773 439.483 881.84 439.483 883.12C439.483 884.72 438.909 885.973 437.763 886.88C436.776 887.627 435.469 888 433.843 888H426.683V871.4ZM429.563 878.16H432.603C433.376 878.16 433.989 878 434.443 877.68C434.976 877.28 435.243 876.707 435.243 875.96C435.243 875.293 434.976 874.76 434.443 874.36C434.043 874.093 433.269 873.96 432.123 873.96H429.563V878.16ZM429.563 885.44H433.123C434.349 885.44 435.216 885.253 435.723 884.88C436.363 884.4 436.683 883.787 436.683 883.04C436.683 882.24 436.403 881.613 435.843 881.16C435.336 880.76 434.469 880.56 433.243 880.56H429.563V885.44Z" fill="black"/>
<path d="M455.15 874.04H449.95V888H447.07V874.04H441.87V871.4H455.15V874.04Z" fill="black"/>
<path d="M472.617 886C470.963 887.653 468.87 888.48 466.337 888.48C463.803 888.48 461.697 887.653 460.017 886C458.363 884.347 457.537 882.267 457.537 879.76C457.537 877.227 458.363 875.133 460.017 873.48C461.697 871.827 463.803 871 466.337 871C468.87 871 470.963 871.827 472.617 873.48C474.297 875.133 475.137 877.227 475.137 879.76C475.137 882.267 474.297 884.347 472.617 886ZM470.457 875.2C469.337 874.107 467.963 873.56 466.337 873.56C464.71 873.56 463.323 874.12 462.177 875.24C461.057 876.333 460.497 877.84 460.497 879.76C460.497 881.68 461.07 883.187 462.217 884.28C463.363 885.373 464.737 885.92 466.337 885.92C467.937 885.92 469.31 885.373 470.457 884.28C471.603 883.187 472.177 881.68 472.177 879.76C472.177 877.813 471.603 876.293 470.457 875.2Z" fill="black"/>
<path d="M478.033 888L482.033 870.12L488.913 883.64L495.633 870.12L499.633 888H496.673L494.473 877.72L488.833 889.16L483.113 877.72L480.993 888H478.033Z" fill="black"/>
<path d="M516.276 873.76V871.4H519.156V888H516.276V885.68C514.836 887.547 512.943 888.48 510.596 888.48C508.356 888.48 506.45 887.707 504.876 886.16C503.303 884.613 502.516 882.453 502.516 879.68C502.516 876.96 503.29 874.84 504.836 873.32C506.41 871.773 508.33 871 510.596 871C512.996 871 514.89 871.92 516.276 873.76ZM510.916 873.56C509.396 873.56 508.103 874.107 507.036 875.2C505.996 876.267 505.476 877.76 505.476 879.68C505.476 881.52 505.956 883.027 506.916 884.2C507.903 885.347 509.236 885.92 510.916 885.92C512.596 885.92 513.93 885.32 514.916 884.12C515.93 882.92 516.436 881.453 516.436 879.72C516.436 877.747 515.876 876.227 514.756 875.16C513.636 874.093 512.356 873.56 510.916 873.56Z" fill="black"/>
<path d="M535.891 874.04H530.691V888H527.811V874.04H522.611V871.4H535.891V874.04Z" fill="black"/>
<path d="M539.317 871.4H542.197V882.36L553.557 870.12V888H550.677V876.92L539.317 889.16V871.4Z" fill="black"/>
<path d="M561.565 875.64L559.565 874C560.205 873.067 560.911 872.373 561.685 871.92C562.725 871.307 563.938 871 565.325 871C567.005 871 568.311 871.387 569.245 872.16C570.205 872.987 570.685 874.04 570.685 875.32C570.685 876.867 570.058 878.027 568.805 878.8C569.605 878.987 570.245 879.347 570.725 879.88C571.498 880.707 571.885 881.72 571.885 882.92C571.885 884.707 571.165 886.133 569.725 887.2C568.551 888.053 566.978 888.48 565.005 888.48C563.245 888.48 561.765 888.013 560.565 887.08C559.658 886.413 558.925 885.467 558.365 884.24L560.845 883.2C561.138 883.947 561.631 884.573 562.325 885.08C563.071 885.64 563.978 885.92 565.045 885.92C566.298 885.92 567.231 885.707 567.845 885.28C568.618 884.773 569.005 884 569.005 882.96C569.005 882.107 568.671 881.467 568.005 881.04C567.445 880.667 566.538 880.48 565.285 880.48H563.605V877.84H565.005C566.018 877.84 566.738 877.693 567.165 877.4C567.751 877.027 568.045 876.52 568.045 875.88C568.045 875.133 567.805 874.56 567.325 874.16C566.871 873.76 566.165 873.56 565.205 873.56C564.378 873.56 563.618 873.773 562.925 874.2C562.338 874.573 561.885 875.053 561.565 875.64Z" fill="black"/>
<path d="M576.68 871.4H579.56V882.36L590.92 870.12V888H588.04V876.92L576.68 889.16V871.4Z" fill="black"/>
<path d="M599.647 885.68V897.36H596.767V871.4H599.647V873.72C601.114 871.907 603.007 871 605.327 871C607.807 871 609.767 871.88 611.207 873.64C612.674 875.373 613.407 877.427 613.407 879.8C613.407 882.2 612.687 884.253 611.247 885.96C609.807 887.64 607.874 888.48 605.447 888.48C603.021 888.48 601.087 887.547 599.647 885.68ZM605.047 885.92C606.674 885.92 607.981 885.333 608.967 884.16C609.954 882.96 610.447 881.507 610.447 879.8C610.447 877.88 609.901 876.36 608.807 875.24C607.714 874.12 606.447 873.56 605.007 873.56C603.567 873.56 602.287 874.12 601.167 875.24C600.047 876.36 599.487 877.867 599.487 879.76C599.487 881.493 599.994 882.96 601.007 884.16C602.047 885.333 603.394 885.92 605.047 885.92Z" fill="black"/>
<path d="M632.262 886C630.609 887.653 628.515 888.48 625.982 888.48C623.449 888.48 621.342 887.653 619.662 886C618.009 884.347 617.182 882.267 617.182 879.76C617.182 877.227 618.009 875.133 619.662 873.48C621.342 871.827 623.449 871 625.982 871C628.515 871 630.609 871.827 632.262 873.48C633.942 875.133 634.782 877.227 634.782 879.76C634.782 882.267 633.942 884.347 632.262 886ZM630.102 875.2C628.982 874.107 627.609 873.56 625.982 873.56C624.355 873.56 622.969 874.12 621.822 875.24C620.702 876.333 620.142 877.84 620.142 879.76C620.142 881.68 620.715 883.187 621.862 884.28C623.009 885.373 624.382 885.92 625.982 885.92C627.582 885.92 628.955 885.373 630.102 884.28C631.249 883.187 631.822 881.68 631.822 879.76C631.822 877.813 631.249 876.293 630.102 875.2Z" fill="black"/>
<path d="M639.598 871.4H645.878C647.398 871.4 648.558 871.72 649.358 872.36C650.318 873.133 650.798 874.173 650.798 875.48C650.798 876.92 650.198 878.027 648.998 878.8C649.825 879.013 650.518 879.387 651.078 879.92C651.958 880.773 652.398 881.84 652.398 883.12C652.398 884.72 651.825 885.973 650.678 886.88C649.692 887.627 648.385 888 646.758 888H639.598V871.4ZM642.478 878.16H645.518C646.292 878.16 646.905 878 647.358 877.68C647.892 877.28 648.158 876.707 648.158 875.96C648.158 875.293 647.892 874.76 647.358 874.36C646.958 874.093 646.185 873.96 645.038 873.96H642.478V878.16ZM642.478 885.44H646.038C647.265 885.44 648.132 885.253 648.638 884.88C649.278 884.4 649.598 883.787 649.598 883.04C649.598 882.24 649.318 881.613 648.758 881.16C648.252 880.76 647.385 880.56 646.158 880.56H642.478V885.44Z" fill="black"/>
<path d="M669.906 873.76V871.4H672.786V888H669.906V885.68C668.466 887.547 666.573 888.48 664.226 888.48C661.986 888.48 660.079 887.707 658.506 886.16C656.933 884.613 656.146 882.453 656.146 879.68C656.146 876.96 656.919 874.84 658.466 873.32C660.039 871.773 661.959 871 664.226 871C666.626 871 668.519 871.92 669.906 873.76ZM664.546 873.56C663.026 873.56 661.733 874.107 660.666 875.2C659.626 876.267 659.106 877.76 659.106 879.68C659.106 881.52 659.586 883.027 660.546 884.2C661.533 885.347 662.866 885.92 664.546 885.92C666.226 885.92 667.559 885.32 668.546 884.12C669.559 882.92 670.066 881.453 670.066 879.72C670.066 877.747 669.506 876.227 668.386 875.16C667.266 874.093 665.986 873.56 664.546 873.56Z" fill="black"/>
<path d="M678.641 888V871.4H681.521V878.2H689.361V871.4H692.241V888H689.361V880.84H681.521V888H678.641Z" fill="black"/>
<path d="M698.064 888V871.4H700.944V878.2H708.784V871.4H711.664V888H708.784V880.84H700.944V888H698.064Z" fill="black"/>
<path d="M730.207 873.76V871.4H733.087V888H730.207V885.68C728.767 887.547 726.874 888.48 724.527 888.48C722.287 888.48 720.381 887.707 718.807 886.16C717.234 884.613 716.447 882.453 716.447 879.68C716.447 876.96 717.221 874.84 718.767 873.32C720.341 871.773 722.261 871 724.527 871C726.927 871 728.821 871.92 730.207 873.76ZM724.848 873.56C723.328 873.56 722.034 874.107 720.967 875.2C719.927 876.267 719.408 877.76 719.408 879.68C719.408 881.52 719.888 883.027 720.848 884.2C721.834 885.347 723.168 885.92 724.848 885.92C726.528 885.92 727.861 885.32 728.848 884.12C729.861 882.92 730.367 881.453 730.367 879.72C730.367 877.747 729.807 876.227 728.688 875.16C727.568 874.093 726.288 873.56 724.848 873.56Z" fill="black"/>
<path d="M737.022 888L742.182 881.16C742.022 881.16 741.796 881.133 741.502 881.08C741.236 881.027 740.836 880.893 740.302 880.68C739.769 880.467 739.329 880.187 738.982 879.84C738.102 879.013 737.662 877.907 737.662 876.52C737.662 874.947 738.156 873.707 739.142 872.8C740.129 871.867 741.756 871.4 744.022 871.4H749.822V888H746.942V881.32H745.182L740.462 888H737.022ZM746.942 878.92V873.96H744.262C743.009 873.96 742.142 874.107 741.662 874.4C740.969 874.853 740.622 875.533 740.622 876.44C740.622 877.347 740.969 878.013 741.662 878.44C742.169 878.76 743.022 878.92 744.222 878.92H746.942Z" fill="black"/>
<path d="M765.406 871.4H768.286V882.36L779.646 870.12V888H776.766V876.92L765.406 889.16V871.4Z" fill="black"/>
<path d="M785.494 888V871.4H788.374V878.2H796.214V871.4H799.094V888H796.214V880.84H788.374V888H785.494Z" fill="black"/>
<path d="M813.757 897.36V888.28C810.851 888.28 808.517 887.56 806.757 886.12C804.837 884.573 803.877 882.427 803.877 879.68C803.877 876.96 804.824 874.827 806.717 873.28C808.424 871.84 810.771 871.12 813.757 871.12V861.32H816.637V871.12C819.624 871.12 821.971 871.84 823.677 873.28C825.571 874.827 826.517 876.96 826.517 879.68C826.517 882.427 825.557 884.573 823.637 886.12C821.877 887.56 819.544 888.28 816.637 888.28V897.36H813.757ZM813.757 885.72V873.68C812.024 873.6 810.544 873.947 809.317 874.72C807.664 875.76 806.837 877.413 806.837 879.68C806.837 881.813 807.611 883.427 809.157 884.52C810.411 885.4 811.944 885.8 813.757 885.72ZM816.637 873.68V885.72C818.451 885.8 819.984 885.4 821.237 884.52C822.784 883.427 823.557 881.813 823.557 879.68C823.557 877.413 822.731 875.76 821.077 874.72C819.851 873.947 818.371 873.6 816.637 873.68Z" fill="black"/>
<path d="M845.373 886C843.719 887.653 841.626 888.48 839.093 888.48C836.559 888.48 834.453 887.653 832.773 886C831.119 884.347 830.293 882.267 830.293 879.76C830.293 877.227 831.119 875.133 832.773 873.48C834.453 871.827 836.559 871 839.093 871C841.626 871 843.719 871.827 845.373 873.48C847.053 875.133 847.893 877.227 847.893 879.76C847.893 882.267 847.053 884.347 845.373 886ZM843.213 875.2C842.093 874.107 840.719 873.56 839.093 873.56C837.466 873.56 836.079 874.12 834.933 875.24C833.813 876.333 833.253 877.84 833.253 879.76C833.253 881.68 833.826 883.187 834.973 884.28C836.119 885.373 837.493 885.92 839.093 885.92C840.693 885.92 842.066 885.373 843.213 884.28C844.359 883.187 844.933 881.68 844.933 879.76C844.933 877.813 844.359 876.293 843.213 875.2Z" fill="black"/>
<path d="M855.589 885.68V897.36H852.709V871.4H855.589V873.72C857.056 871.907 858.949 871 861.269 871C863.749 871 865.709 871.88 867.149 873.64C868.616 875.373 869.349 877.427 869.349 879.8C869.349 882.2 868.629 884.253 867.189 885.96C865.749 887.64 863.816 888.48 861.389 888.48C858.963 888.48 857.029 887.547 855.589 885.68ZM860.989 885.92C862.616 885.92 863.923 885.333 864.909 884.16C865.896 882.96 866.389 881.507 866.389 879.8C866.389 877.88 865.843 876.36 864.749 875.24C863.656 874.12 862.389 873.56 860.949 873.56C859.509 873.56 858.229 874.12 857.109 875.24C855.989 876.36 855.429 877.867 855.429 879.76C855.429 881.493 855.936 882.96 856.949 884.16C857.989 885.333 859.336 885.92 860.989 885.92Z" fill="black"/>
<path d="M872.244 888L876.244 870.12L883.124 883.64L889.844 870.12L893.844 888H890.884L888.684 877.72L883.044 889.16L877.324 877.72L875.204 888H872.244Z" fill="black"/>
<path d="M910.487 873.76V871.4H913.367V888H910.487V885.68C909.047 887.547 907.154 888.48 904.807 888.48C902.567 888.48 900.661 887.707 899.087 886.16C897.514 884.613 896.727 882.453 896.727 879.68C896.727 876.96 897.501 874.84 899.047 873.32C900.621 871.773 902.541 871 904.807 871C907.207 871 909.101 871.92 910.487 873.76ZM905.127 873.56C903.607 873.56 902.314 874.107 901.247 875.2C900.207 876.267 899.687 877.76 899.687 879.68C899.687 881.52 900.167 883.027 901.127 884.2C902.114 885.347 903.447 885.92 905.127 885.92C906.807 885.92 908.141 885.32 909.127 884.12C910.141 882.92 910.647 881.453 910.647 879.72C910.647 877.747 910.087 876.227 908.967 875.16C907.847 874.093 906.567 873.56 905.127 873.56Z" fill="black"/>
<path d="M919.222 888V871.4H922.102V885.36H929.542V871.4H932.422V885.36H935.142V892.4H932.502V888H919.222Z" fill="black"/>
<path d="M938.567 871.4H941.447V882.36L952.807 870.12V888H949.927V876.92L938.567 889.16V871.4Z" fill="black"/>
<path d="M972.695 886C971.041 887.653 968.948 888.48 966.415 888.48C963.881 888.48 961.775 887.653 960.095 886C958.441 884.347 957.615 882.267 957.615 879.76C957.615 877.227 958.441 875.133 960.095 873.48C961.775 871.827 963.881 871 966.415 871C968.948 871 971.041 871.827 972.695 873.48C974.375 875.133 975.215 877.227 975.215 879.76C975.215 882.267 974.375 884.347 972.695 886ZM970.535 875.2C969.415 874.107 968.041 873.56 966.415 873.56C964.788 873.56 963.401 874.12 962.255 875.24C961.135 876.333 960.575 877.84 960.575 879.76C960.575 881.68 961.148 883.187 962.295 884.28C963.441 885.373 964.815 885.92 966.415 885.92C968.015 885.92 969.388 885.373 970.535 884.28C971.681 883.187 972.255 881.68 972.255 879.76C972.255 877.813 971.681 876.293 970.535 875.2Z" fill="black"/>
<path d="M980.031 888V871.4H982.911V878.2H990.751V871.4H993.631V888H990.751V880.84H982.911V888H980.031Z" fill="black"/>
<path d="M999.455 888V871.4H1002.33V878.2H1010.17V871.4H1013.05V888H1010.17V880.84H1002.33V888H999.455Z" fill="black"/>
<path d="M1031.6 873.76V871.4H1034.48V888H1031.6V885.68C1030.16 887.547 1028.26 888.48 1025.92 888.48C1023.68 888.48 1021.77 887.707 1020.2 886.16C1018.62 884.613 1017.84 882.453 1017.84 879.68C1017.84 876.96 1018.61 874.84 1020.16 873.32C1021.73 871.773 1023.65 871 1025.92 871C1028.32 871 1030.21 871.92 1031.6 873.76ZM1026.24 873.56C1024.72 873.56 1023.42 874.107 1022.36 875.2C1021.32 876.267 1020.8 877.76 1020.8 879.68C1020.8 881.52 1021.28 883.027 1022.24 884.2C1023.22 885.347 1024.56 885.92 1026.24 885.92C1027.92 885.92 1029.25 885.32 1030.24 884.12C1031.25 882.92 1031.76 881.453 1031.76 879.72C1031.76 877.747 1031.2 876.227 1030.08 875.16C1028.96 874.093 1027.68 873.56 1026.24 873.56Z" fill="black"/>
<path d="M1038.41 888L1043.57 881.16C1043.41 881.16 1043.19 881.133 1042.89 881.08C1042.63 881.027 1042.23 880.893 1041.69 880.68C1041.16 880.467 1040.72 880.187 1040.37 879.84C1039.49 879.013 1039.05 877.907 1039.05 876.52C1039.05 874.947 1039.55 873.707 1040.53 872.8C1041.52 871.867 1043.15 871.4 1045.41 871.4H1051.21V888H1048.33V881.32H1046.57L1041.85 888H1038.41ZM1048.33 878.92V873.96H1045.65C1044.4 873.96 1043.53 874.107 1043.05 874.4C1042.36 874.853 1042.01 875.533 1042.01 876.44C1042.01 877.347 1042.36 878.013 1043.05 878.44C1043.56 878.76 1044.41 878.92 1045.61 878.92H1048.33Z" fill="black"/>
<path d="M1079.8 872.6V876.04C1078.49 874.387 1076.76 873.56 1074.6 873.56C1072.97 873.56 1071.58 874.12 1070.44 875.24C1069.29 876.333 1068.72 877.84 1068.72 879.76C1068.72 881.68 1069.29 883.187 1070.44 884.28C1071.58 885.373 1072.96 885.92 1074.56 885.92C1076.69 885.92 1078.48 885.053 1079.92 883.32V886.76C1078.34 887.907 1076.58 888.48 1074.64 888.48C1072.05 888.48 1069.92 887.667 1068.24 886.04C1066.58 884.387 1065.76 882.307 1065.76 879.8C1065.76 877.267 1066.6 875.173 1068.28 873.52C1069.96 871.84 1072.08 871 1074.64 871C1076.56 871 1078.28 871.533 1079.8 872.6Z" fill="black"/>
<path d="M1084.74 871.4H1087.62V882.36L1098.98 870.12V888H1096.1V876.92L1084.74 889.16V871.4Z" fill="black"/>
<path d="M1117.82 872.6V876.04C1116.52 874.387 1114.78 873.56 1112.62 873.56C1111 873.56 1109.61 874.12 1108.46 875.24C1107.32 876.333 1106.74 877.84 1106.74 879.76C1106.74 881.68 1107.32 883.187 1108.46 884.28C1109.61 885.373 1110.98 885.92 1112.58 885.92C1114.72 885.92 1116.5 885.053 1117.94 883.32V886.76C1116.37 887.907 1114.61 888.48 1112.66 888.48C1110.08 888.48 1107.94 887.667 1106.26 886.04C1104.61 884.387 1103.78 882.307 1103.78 879.8C1103.78 877.267 1104.62 875.173 1106.3 873.52C1107.98 871.84 1110.1 871 1112.66 871C1114.58 871 1116.3 871.533 1117.82 872.6Z" fill="black"/>
<path d="M1133.64 874.04H1128.44V888H1125.56V874.04H1120.36V871.4H1133.64V874.04Z" fill="black"/>
<path d="M1149.39 882.44L1151.79 883.76C1151.23 884.827 1150.55 885.72 1149.75 886.44C1148.23 887.8 1146.39 888.48 1144.23 888.48C1141.99 888.48 1140.06 887.76 1138.43 886.32C1136.83 884.853 1136.03 882.68 1136.03 879.8C1136.03 877.267 1136.75 875.173 1138.19 873.52C1139.66 871.84 1141.62 871 1144.07 871C1146.84 871 1148.94 872.013 1150.35 874.04C1151.47 875.64 1151.99 877.72 1151.91 880.28H1138.99C1139.02 881.96 1139.54 883.32 1140.55 884.36C1141.56 885.4 1142.8 885.92 1144.27 885.92C1145.58 885.92 1146.71 885.52 1147.67 884.72C1148.42 884.08 1148.99 883.32 1149.39 882.44ZM1139.19 877.88H1148.95C1148.71 876.573 1148.14 875.533 1147.23 874.76C1146.35 873.96 1145.3 873.56 1144.07 873.56C1142.87 873.56 1141.8 873.973 1140.87 874.8C1139.96 875.6 1139.4 876.627 1139.19 877.88Z" fill="black"/>
<path d="M1154.81 888L1158.81 870.12L1165.69 883.64L1172.41 870.12L1176.41 888H1173.45L1171.25 877.72L1165.61 889.16L1159.89 877.72L1157.77 888H1154.81Z" fill="black"/>
<path d="M1193.05 873.76V871.4H1195.93V888H1193.05V885.68C1191.61 887.547 1189.72 888.48 1187.37 888.48C1185.13 888.48 1183.22 887.707 1181.65 886.16C1180.08 884.613 1179.29 882.453 1179.29 879.68C1179.29 876.96 1180.06 874.84 1181.61 873.32C1183.18 871.773 1185.1 871 1187.37 871C1189.77 871 1191.66 871.92 1193.05 873.76ZM1187.69 873.56C1186.17 873.56 1184.88 874.107 1183.81 875.2C1182.77 876.267 1182.25 877.76 1182.25 879.68C1182.25 881.52 1182.73 883.027 1183.69 884.2C1184.68 885.347 1186.01 885.92 1187.69 885.92C1189.37 885.92 1190.7 885.32 1191.69 884.12C1192.7 882.92 1193.21 881.453 1193.21 879.72C1193.21 877.747 1192.65 876.227 1191.53 875.16C1190.41 874.093 1189.13 873.56 1187.69 873.56Z" fill="black"/>
</svg>
