<?xml version="1.0" encoding="utf-8"?>
<!-- Generator: Adobe Illustrator 24.2.3, SVG Export Plug-In . SVG Version: 6.00 Build 0)  -->
<svg version="1.1" id="Слой_1" xmlns="http://www.w3.org/2000/svg" xmlns:xlink="http://www.w3.org/1999/xlink" x="0px" y="0px"
	 viewBox="0 0 802.2 598.3" style="enable-background:new 0 0 802.2 598.3;" xml:space="preserve">
<style type="text/css">
	.st0{fill:url(#SVGID_1_);}
	.st1{fill:url(#SVGID_2_);}
	.st2{fill:url(#SVGID_3_);}
	.st3{fill:url(#SVGID_4_);}
	.st4{fill:#172359;}
</style>
<linearGradient id="SVGID_1_" gradientUnits="userSpaceOnUse" x1="288.645" y1="392.6727" x2="438.6974" y2="392.6727" gradientTransform="matrix(1 0 0 -1 0 601.8065)">
	<stop  offset="0" style="stop-color:#729EFB"/>
	<stop  offset="0.4688" style="stop-color:#6986FB"/>
	<stop  offset="1" style="stop-color:#5D66FA"/>
</linearGradient>
<path class="st0" d="M429.8,289.4c-13.3,15.9-36.9,18-52.9,4.7s-18-36.9-4.7-52.9l75-112.5c13.3-15.9,36.9-18,52.9-4.7
	c15.9,13.3,18,36.9,4.7,52.9L429.8,289.4z"/>
<linearGradient id="SVGID_2_" gradientUnits="userSpaceOnUse" x1="288.646" y1="336.5362" x2="438.594" y2="336.5362" gradientTransform="matrix(1 0 0 -1 0 601.8065)">
	<stop  offset="0" style="stop-color:#729EFB"/>
	<stop  offset="0.4688" style="stop-color:#6986FB"/>
	<stop  offset="1" style="stop-color:#5D66FA"/>
</linearGradient>
<path class="st1" d="M551.1,302.8c20.7,0,37.5-16.8,37.5-37.5c0-20.7-16.8-37.5-37.5-37.5c-20.7,0-37.5,16.8-37.5,37.5
	C513.6,286,530.4,302.8,551.1,302.8z"/>
<linearGradient id="SVGID_3_" gradientUnits="userSpaceOnUse" x1="288.646" y1="336.5362" x2="438.594" y2="336.5362" gradientTransform="matrix(1 0 0 -1 0 601.8065)">
	<stop  offset="0" style="stop-color:#729EFB"/>
	<stop  offset="0.4688" style="stop-color:#6986FB"/>
	<stop  offset="1" style="stop-color:#5D66FA"/>
</linearGradient>
<path class="st2" d="M251.2,302.8c20.7,0,37.5-16.8,37.5-37.5c0-20.7-16.8-37.5-37.5-37.5c-20.7,0-37.5,16.8-37.5,37.5
	C213.7,286,230.5,302.8,251.2,302.8z"/>
<linearGradient id="SVGID_4_" gradientUnits="userSpaceOnUse" x1="288.5003" y1="505.1337" x2="438.5527" y2="505.1337" gradientTransform="matrix(1 0 0 -1 0 601.8065)">
	<stop  offset="0" style="stop-color:#729EFB"/>
	<stop  offset="0.4688" style="stop-color:#6986FB"/>
	<stop  offset="1" style="stop-color:#5D66FA"/>
</linearGradient>
<path class="st3" d="M354.8,177c-13.3,15.9-36.9,18-52.9,4.7c-15.9-13.3-18-36.9-4.7-52.9l75-112.5c13.3-15.9,36.9-18,52.9-4.7
	c15.9,13.3,18,36.9,4.7,52.9L354.8,177z"/>
<path class="st4" d="M18.5,427.5h63.6v93.4H63.9v-77.7H36.7v41.4c0,3.5,0,6.2-0.1,8c-0.1,1.8-0.4,4.3-1,7.6
	c-0.6,3.3-1.6,6.2-3.1,8.7c-1.5,2.4-3.5,4.7-5.9,6.7c-4.9,4.1-11.1,6.2-18.6,6.2c-2.6,0-5.2-0.3-7.7-0.8v-15.7
	c1.9,0.6,3.6,0.8,5.2,0.8c3.4,0,6.2-1.1,8.4-3.4c1.5-1.5,2.6-3.5,3.2-6.2c0.7-2.6,1.2-4.9,1.3-6.7c0.1-1.9,0.1-4.8,0.1-8.8V427.5z"
	/>
<path class="st4" d="M112.7,439.1c9.3-9.1,21.3-13.7,36-13.7c14.7,0,26.6,4.6,35.8,13.7c9.3,9.1,14,20.9,14,35.1
	c0,14.3-4.7,26-14,35.1c-9.2,9.1-21.2,13.6-35.8,13.6c-14.7,0-26.6-4.5-36-13.6c-9.2-9.1-13.9-20.9-13.9-35.1
	C98.9,460,103.5,448.3,112.7,439.1z M126.3,497.5c5.8,6,13.3,9,22.4,9c9.1,0,16.6-3,22.4-9c5.8-6.1,8.7-13.8,8.7-23.2
	s-2.9-17.2-8.8-23.2c-5.8-6.1-13.2-9.1-22.3-9.1c-9.1,0-16.5,3-22.4,9.1c-5.8,6.1-8.7,13.8-8.7,23.2S120.5,491.5,126.3,497.5z"/>
<path class="st4" d="M264.9,427.5v15.7h-31.4v77.7h-18.2v-93.4H264.9z"/>
<path class="st4" d="M276.3,427.5h18.2v62.7l51.5-64.8h12.6v95.5h-18.2v-63l-51.5,64.8h-12.6V427.5z"/>
<path class="st4" d="M447.7,496.3v21.3c-6.9,3.6-14.6,5.5-23.1,5.5c-13.6,0-25-4.3-34.2-13c-10-9.6-15-21.5-15-35.7
	c0-15.1,5-27.3,15-36.5c8.8-8.2,20.2-12.3,34.3-12.3c8.2,0,15.9,1.9,23,5.7v21.3c-6.1-7-13.6-10.5-22.5-10.5
	c-9.1,0-16.6,3.2-22.4,9.7c-5.7,6.3-8.5,14-8.5,23c0,9.8,3.2,17.6,9.5,23.4c6.3,5.7,13.7,8.5,22.1,8.5
	C434.6,506.5,441.9,503.1,447.7,496.3z"/>
<path class="st4" d="M514.8,443.2h-21v77.7h-18.2v-77.7h-21v-15.7h60.2V443.2z"/>
<path class="st4" d="M526.4,427.5h18.2v62.7l51.5-64.8h12.6v95.5h-18.2v-63L539,522.7h-12.6V427.5z"/>
<path class="st4" d="M648.2,427.5V467l34.3-39.5h23L666,470.6l41.6,50.3h-24.1L650.3,479l-2.1,2.1v39.8H630v-93.4H648.2z"/>
<path class="st4" d="M782.6,520.9l-8.3-19.6h-37.7l-8.3,19.6h-19.7l40.5-95.3h13.7l39.3,95.3H782.6z M742.4,486.5H769l-13.2-33.6
	L742.4,486.5z"/>
<path class="st4" d="M21,588.9l-3.1-7.5H6.5l-3.2,7.5H0l12.3-28l12,28H21z M7.6,578.6h9l-4.5-10.7L7.6,578.6z"/>
<path class="st4" d="M27.7,572.3H34c1.5,0,2.7,0.3,3.5,1c1,0.8,1.4,1.8,1.4,3.1c0,1.4-0.6,2.5-1.8,3.3c0.8,0.2,1.5,0.6,2.1,1.1
	c0.9,0.9,1.3,1.9,1.3,3.2c0,1.6-0.6,2.9-1.7,3.8c-1,0.7-2.3,1.1-3.9,1.1h-7.2V572.3z M30.6,579.1h3c0.8,0,1.4-0.2,1.8-0.5
	c0.5-0.4,0.8-1,0.8-1.7c0-0.7-0.3-1.2-0.8-1.6c-0.4-0.3-1.2-0.4-2.3-0.4h-2.6V579.1z M30.6,586.3h3.6c1.2,0,2.1-0.2,2.6-0.6
	c0.6-0.5,1-1.1,1-1.8c0-0.8-0.3-1.4-0.8-1.9c-0.5-0.4-1.4-0.6-2.6-0.6h-3.7V586.3z"/>
<path class="st4" d="M56.1,574.9H51v14h-2.9v-14h-5.2v-2.6h13.3V574.9z"/>
<path class="st4" d="M73.6,586.9c-1.7,1.7-3.7,2.5-6.3,2.5c-2.5,0-4.6-0.8-6.3-2.5c-1.7-1.7-2.5-3.7-2.5-6.2c0-2.5,0.8-4.6,2.5-6.3
	c1.7-1.7,3.8-2.5,6.3-2.5c2.5,0,4.6,0.8,6.3,2.5c1.7,1.7,2.5,3.7,2.5,6.3C76.1,583.2,75.3,585.3,73.6,586.9z M71.5,576.1
	c-1.1-1.1-2.5-1.6-4.1-1.6c-1.6,0-3,0.6-4.2,1.7c-1.1,1.1-1.7,2.6-1.7,4.5s0.6,3.4,1.7,4.5c1.1,1.1,2.5,1.6,4.1,1.6s3-0.5,4.1-1.6
	c1.1-1.1,1.7-2.6,1.7-4.5C73.2,578.7,72.6,577.2,71.5,576.1z"/>
<path class="st4" d="M79,588.9l4-17.9l6.9,13.5l6.7-13.5l4,17.9h-3l-2.2-10.3l-5.6,11.4l-5.7-11.4L82,588.9H79z"/>
<path class="st4" d="M117.3,574.7v-2.4h2.9v16.6h-2.9v-2.3c-1.4,1.9-3.3,2.8-5.7,2.8c-2.2,0-4.1-0.8-5.7-2.3
	c-1.6-1.5-2.4-3.7-2.4-6.5c0-2.7,0.8-4.8,2.3-6.4c1.6-1.5,3.5-2.3,5.8-2.3C114,571.9,115.9,572.8,117.3,574.7z M111.9,574.5
	c-1.5,0-2.8,0.5-3.9,1.6c-1,1.1-1.6,2.6-1.6,4.5c0,1.8,0.5,3.3,1.4,4.5c1,1.1,2.3,1.7,4,1.7c1.7,0,3-0.6,4-1.8
	c1-1.2,1.5-2.7,1.5-4.4c0-2-0.6-3.5-1.7-4.6C114.6,575,113.4,574.5,111.9,574.5z"/>
<path class="st4" d="M136.9,574.9h-5.2v14h-2.9v-14h-5.2v-2.6h13.3V574.9z"/>
<path class="st4" d="M140.3,572.3h2.9v11l11.4-12.2v17.9h-2.9v-11.1l-11.4,12.2V572.3z"/>
<path class="st4" d="M162.6,576.5l-2-1.6c0.6-0.9,1.3-1.6,2.1-2.1c1-0.6,2.3-0.9,3.6-0.9c1.7,0,3,0.4,3.9,1.2c1,0.8,1.4,1.9,1.4,3.2
	c0,1.5-0.6,2.7-1.9,3.5c0.8,0.2,1.4,0.5,1.9,1.1c0.8,0.8,1.2,1.8,1.2,3c0,1.8-0.7,3.2-2.2,4.3c-1.2,0.9-2.7,1.3-4.7,1.3
	c-1.8,0-3.2-0.5-4.4-1.4c-0.9-0.7-1.6-1.6-2.2-2.8l2.5-1c0.3,0.7,0.8,1.4,1.5,1.9c0.7,0.6,1.7,0.8,2.7,0.8c1.3,0,2.2-0.2,2.8-0.6
	c0.8-0.5,1.2-1.3,1.2-2.3c0-0.9-0.3-1.5-1-1.9c-0.6-0.4-1.5-0.6-2.7-0.6h-1.7v-2.6h1.4c1,0,1.7-0.1,2.2-0.4c0.6-0.4,0.9-0.9,0.9-1.5
	c0-0.7-0.2-1.3-0.7-1.7c-0.5-0.4-1.2-0.6-2.1-0.6c-0.8,0-1.6,0.2-2.3,0.6C163.3,575.5,162.9,576,162.6,576.5z"/>
<path class="st4" d="M177.7,572.3h2.9v11l11.4-12.2v17.9H189v-11.1l-11.4,12.2V572.3z"/>
<path class="st4" d="M200.6,586.6v11.7h-2.9v-26h2.9v2.3c1.5-1.8,3.4-2.7,5.7-2.7c2.5,0,4.4,0.9,5.9,2.6c1.5,1.7,2.2,3.8,2.2,6.2
	c0,2.4-0.7,4.5-2.2,6.2c-1.4,1.7-3.4,2.5-5.8,2.5C204,589.4,202.1,588.5,200.6,586.6z M206,586.8c1.6,0,2.9-0.6,3.9-1.8
	c1-1.2,1.5-2.7,1.5-4.4c0-1.9-0.5-3.4-1.6-4.6c-1.1-1.1-2.4-1.7-3.8-1.7s-2.7,0.6-3.8,1.7s-1.7,2.6-1.7,4.5c0,1.7,0.5,3.2,1.5,4.4
	C203,586.2,204.4,586.8,206,586.8z"/>
<path class="st4" d="M233.3,586.9c-1.7,1.7-3.7,2.5-6.3,2.5s-4.6-0.8-6.3-2.5c-1.7-1.7-2.5-3.7-2.5-6.2c0-2.5,0.8-4.6,2.5-6.3
	c1.7-1.7,3.8-2.5,6.3-2.5s4.6,0.8,6.3,2.5c1.7,1.7,2.5,3.7,2.5,6.3C235.8,583.2,234.9,585.3,233.3,586.9z M231.1,576.1
	c-1.1-1.1-2.5-1.6-4.1-1.6s-3,0.6-4.2,1.7c-1.1,1.1-1.7,2.6-1.7,4.5s0.6,3.4,1.7,4.5c1.1,1.1,2.5,1.6,4.1,1.6s3-0.5,4.1-1.6
	c1.1-1.1,1.7-2.6,1.7-4.5C232.8,578.7,232.2,577.2,231.1,576.1z"/>
<path class="st4" d="M240.6,572.3h6.3c1.5,0,2.7,0.3,3.5,1c1,0.8,1.4,1.8,1.4,3.1c0,1.4-0.6,2.5-1.8,3.3c0.8,0.2,1.5,0.6,2.1,1.1
	c0.9,0.9,1.3,1.9,1.3,3.2c0,1.6-0.6,2.9-1.7,3.8c-1,0.7-2.3,1.1-3.9,1.1h-7.2V572.3z M243.5,579.1h3c0.8,0,1.4-0.2,1.8-0.5
	c0.5-0.4,0.8-1,0.8-1.7c0-0.7-0.3-1.2-0.8-1.6c-0.4-0.3-1.2-0.4-2.3-0.4h-2.6V579.1z M243.5,586.3h3.6c1.2,0,2.1-0.2,2.6-0.6
	c0.6-0.5,1-1.1,1-1.8c0-0.8-0.3-1.4-0.8-1.9c-0.5-0.4-1.4-0.6-2.6-0.6h-3.7V586.3z"/>
<path class="st4" d="M270.9,574.7v-2.4h2.9v16.6h-2.9v-2.3c-1.4,1.9-3.3,2.8-5.7,2.8c-2.2,0-4.1-0.8-5.7-2.3s-2.4-3.7-2.4-6.5
	c0-2.7,0.8-4.8,2.3-6.4c1.6-1.5,3.5-2.3,5.8-2.3C267.6,571.9,269.5,572.8,270.9,574.7z M265.5,574.5c-1.5,0-2.8,0.5-3.9,1.6
	c-1,1.1-1.6,2.6-1.6,4.5c0,1.8,0.5,3.3,1.4,4.5c1,1.1,2.3,1.7,4,1.7s3-0.6,4-1.8c1-1.2,1.5-2.7,1.5-4.4c0-2-0.6-3.5-1.7-4.6
	C268.3,575,267,574.5,265.5,574.5z"/>
<path class="st4" d="M279.6,588.9v-16.6h2.9v6.8h7.8v-6.8h2.9v16.6h-2.9v-7.2h-7.8v7.2H279.6z"/>
<path class="st4" d="M299.1,588.9v-16.6h2.9v6.8h7.8v-6.8h2.9v16.6h-2.9v-7.2h-7.8v7.2H299.1z"/>
<path class="st4" d="M331.2,574.7v-2.4h2.9v16.6h-2.9v-2.3c-1.4,1.9-3.3,2.8-5.7,2.8c-2.2,0-4.1-0.8-5.7-2.3
	c-1.6-1.5-2.4-3.7-2.4-6.5c0-2.7,0.8-4.8,2.3-6.4c1.6-1.5,3.5-2.3,5.8-2.3C327.9,571.9,329.8,572.8,331.2,574.7z M325.8,574.5
	c-1.5,0-2.8,0.5-3.9,1.6c-1,1.1-1.6,2.6-1.6,4.5c0,1.8,0.5,3.3,1.4,4.5c1,1.1,2.3,1.7,4,1.7s3-0.6,4-1.8c1-1.2,1.5-2.7,1.5-4.4
	c0-2-0.6-3.5-1.7-4.6C328.6,575,327.3,574.5,325.8,574.5z"/>
<path class="st4" d="M338,588.9l5.2-6.8c-0.2,0-0.4,0-0.7-0.1c-0.3-0.1-0.7-0.2-1.2-0.4c-0.5-0.2-1-0.5-1.3-0.8
	c-0.9-0.8-1.3-1.9-1.3-3.3c0-1.6,0.5-2.8,1.5-3.7c1-0.9,2.6-1.4,4.9-1.4h5.8v16.6h-2.9v-6.7h-1.8l-4.7,6.7H338z M347.9,579.8v-5
	h-2.7c-1.3,0-2.1,0.1-2.6,0.4c-0.7,0.5-1,1.1-1,2s0.3,1.6,1,2c0.5,0.3,1.4,0.5,2.6,0.5H347.9z"/>
<path class="st4" d="M366.4,572.3h2.9v11l11.4-12.2v17.9h-2.9v-11.1l-11.4,12.2V572.3z"/>
<path class="st4" d="M386.5,588.9v-16.6h2.9v6.8h7.8v-6.8h2.9v16.6h-2.9v-7.2h-7.8v7.2H386.5z"/>
<path class="st4" d="M414.8,598.3v-9.1c-2.9,0-5.2-0.7-7-2.2c-1.9-1.5-2.9-3.7-2.9-6.4c0-2.7,0.9-4.9,2.8-6.4c1.7-1.4,4.1-2.2,7-2.2
	v-9.8h2.9v9.8c3,0,5.3,0.7,7,2.2c1.9,1.5,2.8,3.7,2.8,6.4c0,2.7-1,4.9-2.9,6.4c-1.8,1.4-4.1,2.2-7,2.2v9.1H414.8z M414.8,586.6v-12
	c-1.7-0.1-3.2,0.3-4.4,1c-1.7,1-2.5,2.7-2.5,5c0,2.1,0.8,3.7,2.3,4.8C411.4,586.3,412.9,586.7,414.8,586.6z M417.6,574.6v12
	c1.8,0.1,3.3-0.3,4.6-1.2c1.5-1.1,2.3-2.7,2.3-4.8c0-2.3-0.8-3.9-2.5-5C420.9,574.9,419.4,574.5,417.6,574.6z"/>
<path class="st4" d="M446.4,586.9c-1.7,1.7-3.7,2.5-6.3,2.5c-2.5,0-4.6-0.8-6.3-2.5c-1.7-1.7-2.5-3.7-2.5-6.2c0-2.5,0.8-4.6,2.5-6.3
	c1.7-1.7,3.8-2.5,6.3-2.5c2.5,0,4.6,0.8,6.3,2.5c1.7,1.7,2.5,3.7,2.5,6.3C448.9,583.2,448.1,585.3,446.4,586.9z M444.2,576.1
	c-1.1-1.1-2.5-1.6-4.1-1.6c-1.6,0-3,0.6-4.2,1.7c-1.1,1.1-1.7,2.6-1.7,4.5s0.6,3.4,1.7,4.5c1.1,1.1,2.5,1.6,4.1,1.6
	c1.6,0,3-0.5,4.1-1.6c1.1-1.1,1.7-2.6,1.7-4.5C445.9,578.7,445.4,577.2,444.2,576.1z"/>
<path class="st4" d="M456.6,586.6v11.7h-2.9v-26h2.9v2.3c1.5-1.8,3.4-2.7,5.7-2.7c2.5,0,4.4,0.9,5.9,2.6c1.5,1.7,2.2,3.8,2.2,6.2
	c0,2.4-0.7,4.5-2.2,6.2c-1.4,1.7-3.4,2.5-5.8,2.5C460,589.4,458,588.5,456.6,586.6z M462,586.8c1.6,0,2.9-0.6,3.9-1.8
	c1-1.2,1.5-2.7,1.5-4.4c0-1.9-0.5-3.4-1.6-4.6c-1.1-1.1-2.4-1.7-3.8-1.7s-2.7,0.6-3.8,1.7s-1.7,2.6-1.7,4.5c0,1.7,0.5,3.2,1.5,4.4
	C459,586.2,460.3,586.8,462,586.8z"/>
<path class="st4" d="M473.2,588.9l4-17.9l6.9,13.5l6.7-13.5l4,17.9h-3l-2.2-10.3l-5.6,11.4l-5.7-11.4l-2.1,10.3H473.2z"/>
<path class="st4" d="M511.5,574.7v-2.4h2.9v16.6h-2.9v-2.3c-1.4,1.9-3.3,2.8-5.7,2.8c-2.2,0-4.1-0.8-5.7-2.3
	c-1.6-1.5-2.4-3.7-2.4-6.5c0-2.7,0.8-4.8,2.3-6.4c1.6-1.5,3.5-2.3,5.8-2.3C508.2,571.9,510.1,572.8,511.5,574.7z M506.1,574.5
	c-1.5,0-2.8,0.5-3.9,1.6c-1,1.1-1.6,2.6-1.6,4.5c0,1.8,0.5,3.3,1.4,4.5c1,1.1,2.3,1.7,4,1.7s3-0.6,4-1.8c1-1.2,1.5-2.7,1.5-4.4
	c0-2-0.6-3.5-1.7-4.6C508.8,575,507.6,574.5,506.1,574.5z"/>
<path class="st4" d="M520.2,588.9v-16.6h2.9v14h7.4v-14h2.9v14h2.7v7h-2.6v-4.4H520.2z"/>
<path class="st4" d="M539.6,572.3h2.9v11l11.4-12.2v17.9h-2.9v-11.1l-11.4,12.2V572.3z"/>
<path class="st4" d="M573.7,586.9c-1.7,1.7-3.7,2.5-6.3,2.5c-2.5,0-4.6-0.8-6.3-2.5c-1.7-1.7-2.5-3.7-2.5-6.2c0-2.5,0.8-4.6,2.5-6.3
	c1.7-1.7,3.8-2.5,6.3-2.5c2.5,0,4.6,0.8,6.3,2.5c1.7,1.7,2.5,3.7,2.5,6.3C576.2,583.2,575.4,585.3,573.7,586.9z M571.5,576.1
	c-1.1-1.1-2.5-1.6-4.1-1.6c-1.6,0-3,0.6-4.2,1.7c-1.1,1.1-1.7,2.6-1.7,4.5s0.6,3.4,1.7,4.5c1.1,1.1,2.5,1.6,4.1,1.6
	c1.6,0,3-0.5,4.1-1.6c1.1-1.1,1.7-2.6,1.7-4.5C573.3,578.7,572.7,577.2,571.5,576.1z"/>
<path class="st4" d="M581,588.9v-16.6h2.9v6.8h7.8v-6.8h2.9v16.6h-2.9v-7.2h-7.8v7.2H581z"/>
<path class="st4" d="M600.5,588.9v-16.6h2.9v6.8h7.8v-6.8h2.9v16.6h-2.9v-7.2h-7.8v7.2H600.5z"/>
<path class="st4" d="M632.6,574.7v-2.4h2.9v16.6h-2.9v-2.3c-1.4,1.9-3.3,2.8-5.7,2.8c-2.2,0-4.2-0.8-5.7-2.3
	c-1.6-1.5-2.4-3.7-2.4-6.5c0-2.7,0.8-4.8,2.3-6.4c1.6-1.5,3.5-2.3,5.8-2.3C629.3,571.9,631.2,572.8,632.6,574.7z M627.2,574.5
	c-1.5,0-2.8,0.5-3.9,1.6c-1,1.1-1.6,2.6-1.6,4.5c0,1.8,0.5,3.3,1.4,4.5c1,1.1,2.3,1.7,4,1.7c1.7,0,3-0.6,4-1.8
	c1-1.2,1.5-2.7,1.5-4.4c0-2-0.6-3.5-1.7-4.6C630,575,628.7,574.5,627.2,574.5z"/>
<path class="st4" d="M639.4,588.9l5.2-6.8c-0.2,0-0.4,0-0.7-0.1c-0.3-0.1-0.7-0.2-1.2-0.4c-0.5-0.2-1-0.5-1.3-0.8
	c-0.9-0.8-1.3-1.9-1.3-3.3c0-1.6,0.5-2.8,1.5-3.7c1-0.9,2.6-1.4,4.9-1.4h5.8v16.6h-2.9v-6.7h-1.8l-4.7,6.7H639.4z M649.3,579.8v-5
	h-2.7c-1.3,0-2.1,0.1-2.6,0.4c-0.7,0.5-1,1.1-1,2s0.3,1.6,1,2c0.5,0.3,1.4,0.5,2.6,0.5H649.3z"/>
<path class="st4" d="M680.8,573.5v3.4c-1.3-1.7-3-2.5-5.2-2.5c-1.6,0-3,0.6-4.2,1.7c-1.1,1.1-1.7,2.6-1.7,4.5s0.6,3.4,1.7,4.5
	c1.1,1.1,2.5,1.6,4.1,1.6c2.1,0,3.9-0.9,5.4-2.6v3.4c-1.6,1.1-3.3,1.7-5.3,1.7c-2.6,0-4.7-0.8-6.4-2.4c-1.7-1.7-2.5-3.7-2.5-6.2
	c0-2.5,0.8-4.6,2.5-6.3c1.7-1.7,3.8-2.5,6.4-2.5C677.6,571.9,679.3,572.4,680.8,573.5z"/>
<path class="st4" d="M685.7,572.3h2.9v11L700,571v17.9h-2.9v-11.1l-11.4,12.2V572.3z"/>
<path class="st4" d="M718.8,573.5v3.4c-1.3-1.7-3-2.5-5.2-2.5c-1.6,0-3,0.6-4.2,1.7c-1.1,1.1-1.7,2.6-1.7,4.5s0.6,3.4,1.7,4.5
	c1.2,1.1,2.5,1.6,4.1,1.6c2.1,0,3.9-0.9,5.4-2.6v3.4c-1.6,1.1-3.3,1.7-5.3,1.7c-2.6,0-4.7-0.8-6.4-2.4c-1.7-1.7-2.5-3.7-2.5-6.2
	c0-2.5,0.8-4.6,2.5-6.3c1.7-1.7,3.8-2.5,6.4-2.5C715.6,571.9,717.3,572.4,718.8,573.5z"/>
<path class="st4" d="M734.6,574.9h-5.2v14h-2.9v-14h-5.2v-2.6h13.3V574.9z"/>
<path class="st4" d="M750.4,583.3l2.4,1.3c-0.6,1.1-1.2,2-2,2.7c-1.5,1.4-3.4,2-5.5,2c-2.2,0-4.2-0.7-5.8-2.2
	c-1.6-1.5-2.4-3.6-2.4-6.5c0-2.5,0.7-4.6,2.2-6.3c1.5-1.7,3.4-2.5,5.9-2.5c2.8,0,4.9,1,6.3,3c1.1,1.6,1.6,3.7,1.6,6.2H740
	c0,1.7,0.6,3,1.6,4.1c1,1,2.3,1.6,3.7,1.6c1.3,0,2.4-0.4,3.4-1.2C749.4,585,750,584.2,750.4,583.3z M740.2,578.8h9.8
	c-0.2-1.3-0.8-2.3-1.7-3.1c-0.9-0.8-1.9-1.2-3.2-1.2c-1.2,0-2.3,0.4-3.2,1.2C741,576.5,740.4,577.5,740.2,578.8z"/>
<path class="st4" d="M755.8,588.9l4-17.9l6.9,13.5l6.7-13.5l4,17.9h-3l-2.2-10.3l-5.6,11.4l-5.7-11.4l-2.1,10.3H755.8z"/>
<path class="st4" d="M794.1,574.7v-2.4h2.9v16.6h-2.9v-2.3c-1.4,1.9-3.3,2.8-5.7,2.8c-2.2,0-4.2-0.8-5.7-2.3
	c-1.6-1.5-2.4-3.7-2.4-6.5c0-2.7,0.8-4.8,2.3-6.4c1.6-1.5,3.5-2.3,5.8-2.3C790.8,571.9,792.7,572.8,794.1,574.7z M788.7,574.5
	c-1.5,0-2.8,0.5-3.9,1.6c-1,1.1-1.6,2.6-1.6,4.5c0,1.8,0.5,3.3,1.4,4.5c1,1.1,2.3,1.7,4,1.7c1.7,0,3-0.6,4-1.8
	c1-1.2,1.5-2.7,1.5-4.4c0-2-0.6-3.5-1.7-4.6C791.4,575,790.1,574.5,788.7,574.5z"/>
</svg>
