<svg xmlns="http://www.w3.org/2000/svg" xmlns:xlink="http://www.w3.org/1999/xlink" width="25px" height="23px" viewBox="0 0 25 23" version="1.1">
	<g id="surface1">
		<path style=" stroke:none;fill-rule:nonzero;fill:rgb(74.509804%,74.509804%,74.509804%);fill-opacity:1;" d="M 10.417969 5.109375 L 16.667969 5.109375 L 16.667969 6.390625 L 10.417969 6.390625 Z M 10.417969 5.109375 "/>
		<path style=" stroke:none;fill-rule:nonzero;fill:rgb(74.509804%,74.509804%,74.509804%);fill-opacity:1;" d="M 10.417969 7.667969 L 16.667969 7.667969 L 16.667969 8.945312 L 10.417969 8.945312 Z M 10.417969 7.667969 "/>
		<path style=" stroke:none;fill-rule:nonzero;fill:rgb(74.509804%,74.509804%,74.509804%);fill-opacity:1;" d="M 10.417969 10.222656 L 16.667969 10.222656 L 16.667969 11.5 L 10.417969 11.5 Z M 10.417969 10.222656 "/>
		<path style=" stroke:none;fill-rule:nonzero;fill:rgb(74.509804%,74.509804%,74.509804%);fill-opacity:1;" d="M 10.417969 12.777344 L 16.667969 12.777344 L 16.667969 14.054688 L 10.417969 14.054688 Z M 10.417969 12.777344 "/>
		<path style=" stroke:none;fill-rule:nonzero;fill:rgb(74.509804%,74.509804%,74.509804%);fill-opacity:1;" d="M 10.417969 15.332031 L 16.667969 15.332031 L 16.667969 16.609375 L 10.417969 16.609375 Z M 10.417969 15.332031 "/>
		<path style=" stroke:none;fill-rule:nonzero;fill:rgb(74.509804%,74.509804%,74.509804%);fill-opacity:1;" d="M 7.636719 5.109375 L 9.027344 5.109375 L 9.027344 6.390625 L 7.636719 6.390625 Z M 7.636719 5.109375 "/>
		<path style=" stroke:none;fill-rule:nonzero;fill:rgb(74.509804%,74.509804%,74.509804%);fill-opacity:1;" d="M 7.636719 7.667969 L 9.027344 7.667969 L 9.027344 8.945312 L 7.636719 8.945312 Z M 7.636719 7.667969 "/>
		<path style=" stroke:none;fill-rule:nonzero;fill:rgb(74.509804%,74.509804%,74.509804%);fill-opacity:1;" d="M 7.636719 10.222656 L 9.027344 10.222656 L 9.027344 11.5 L 7.636719 11.5 Z M 7.636719 10.222656 "/>
		<path style=" stroke:none;fill-rule:nonzero;fill:rgb(74.509804%,74.509804%,74.509804%);fill-opacity:1;" d="M 7.636719 12.777344 L 9.027344 12.777344 L 9.027344 14.054688 L 7.636719 14.054688 Z M 7.636719 12.777344 "/>
		<path style=" stroke:none;fill-rule:nonzero;fill:rgb(74.509804%,74.509804%,74.509804%);fill-opacity:1;" d="M 7.636719 15.332031 L 9.027344 15.332031 L 9.027344 16.609375 L 7.636719 16.609375 Z M 7.636719 15.332031 "/>
		<path style=" stroke:none;fill-rule:nonzero;fill:rgb(74.509804%,74.509804%,74.509804%);fill-opacity:1;" d="M 19.445312 1.277344 L 5.554688 1.277344 C 5.1875 1.277344 4.832031 1.414062 4.574219 1.652344 C 4.3125 1.890625 4.167969 2.214844 4.167969 2.554688 L 4.167969 20.445312 C 4.167969 20.785156 4.3125 21.109375 4.574219 21.347656 C 4.832031 21.585938 5.1875 21.722656 5.554688 21.722656 L 19.445312 21.722656 C 19.8125 21.722656 20.164062 21.585938 20.425781 21.347656 C 20.6875 21.109375 20.832031 20.785156 20.832031 20.445312 L 20.832031 2.554688 C 20.832031 2.214844 20.6875 1.890625 20.425781 1.652344 C 20.164062 1.414062 19.8125 1.277344 19.445312 1.277344 Z M 19.445312 20.445312 L 5.554688 20.445312 L 5.554688 2.554688 L 19.445312 2.554688 Z M 19.445312 20.445312 "/>
	</g>
</svg>