<svg xmlns="http://www.w3.org/2000/svg" width="25" height="25" viewBox="0 0 25 25" fill="#077EFA">
	<path d="M10.4165 5.55554H16.6665V6.94443H10.4165V5.55554Z"/>
	<path d="M10.4165 8.33331H16.6665V9.7222H10.4165V8.33331Z"/>
	<path d="M10.4165 11.1111H16.6665V12.5H10.4165V11.1111Z"/>
	<path d="M10.4165 13.8889H16.6665V15.2778H10.4165V13.8889Z"/>
	<path d="M10.4165 16.6667H16.6665V18.0556H10.4165V16.6667Z"/>
	<path d="M7.63867 5.55554H9.02756V6.94443H7.63867V5.55554Z"/>
	<path d="M7.63867 8.33331H9.02756V9.7222H7.63867V8.33331Z"/>
	<path d="M7.63867 11.1111H9.02756V12.5H7.63867V11.1111Z"/>
	<path d="M7.63867 13.8889H9.02756V15.2778H7.63867V13.8889Z"/>
	<path d="M7.63867 16.6667H9.02756V18.0556H7.63867V16.6667Z"/>
	<path d="M19.4443 1.38892H5.55539C5.18704 1.38892 4.83377 1.53524 4.5733 1.79571C4.31283 2.05618 4.1665 2.40945 4.1665 2.7778V22.2222C4.1665 22.5906 4.31283 22.9439 4.5733 23.2043C4.83377 23.4648 5.18704 23.6111 5.55539 23.6111H19.4443C19.8126 23.6111 20.1659 23.4648 20.4264 23.2043C20.6868 22.9439 20.8332 22.5906 20.8332 22.2222V2.7778C20.8332 2.40945 20.6868 2.05618 20.4264 1.79571C20.1659 1.53524 19.8126 1.38892 19.4443 1.38892ZM19.4443 22.2222H5.55539V2.7778H19.4443V22.2222Z"/>
</svg>