<svg xmlns="http://www.w3.org/2000/svg" xmlns:xlink="http://www.w3.org/1999/xlink" width="23px" height="22px" viewBox="0 0 23 22" version="1.1">
	<g id="surface1">
		<path fill="#077EFA" d="M 6.445312 2.464844 L 18.996094 2.464844 L 18.996094 3.5 L 6.445312 3.5 Z M 6.445312 2.464844 "/>
		<path fill="#077EFA" d="M 19.691406 4.335938 L 6.347656 4.335938 C 6.167969 4.332031 5.992188 4.292969 5.832031 4.226562 C 5.671875 4.15625 5.523438 4.058594 5.40625 3.929688 C 5.28125 3.808594 5.1875 3.660156 5.128906 3.5 C 5.070312 3.339844 5.042969 3.167969 5.054688 3 C 5.054688 2.660156 5.183594 2.335938 5.429688 2.089844 C 5.667969 1.84375 5.996094 1.6875 6.347656 1.667969 L 19.691406 1.667969 C 19.875 1.667969 20.054688 1.59375 20.179688 1.472656 C 20.3125 1.34375 20.386719 1.175781 20.386719 1 C 20.386719 0.820312 20.3125 0.652344 20.179688 0.527344 C 20.054688 0.402344 19.875 0.332031 19.691406 0.332031 L 6.347656 0.332031 C 5.625 0.359375 4.941406 0.648438 4.445312 1.148438 C 3.9375 1.644531 3.65625 2.308594 3.65625 3 C 3.648438 3.109375 3.648438 3.21875 3.65625 3.324219 C 3.648438 3.382812 3.648438 3.433594 3.65625 3.484375 L 3.65625 19 C 3.65625 19.691406 3.9375 20.355469 4.445312 20.851562 C 4.941406 21.351562 5.625 21.640625 6.347656 21.667969 L 19.691406 21.667969 C 19.875 21.667969 20.054688 21.597656 20.179688 21.472656 C 20.3125 21.347656 20.386719 21.179688 20.386719 21 L 20.386719 5.046875 C 20.386719 4.863281 20.316406 4.6875 20.183594 4.558594 C 20.058594 4.425781 19.878906 4.34375 19.691406 4.335938 Z M 18.996094 20.332031 L 6.347656 20.332031 C 5.996094 20.3125 5.667969 20.15625 5.429688 19.910156 C 5.183594 19.664062 5.054688 19.339844 5.054688 19 L 5.054688 5.367188 C 5.445312 5.574219 5.894531 5.679688 6.347656 5.667969 L 18.996094 5.667969 Z M 18.996094 20.332031 "/>
	</g>
</svg>