<svg xmlns="http://www.w3.org/2000/svg" width="25" height="25" viewBox="0 0 17 22" fill="none">
	<path d="M3.6665 2.46667H15.6665V3.50001H3.6665V2.46667Z" fill="#BEBEBE"/>
	<path d="M16.3333 4.33334H3.57329C3.40316 4.33093 3.23527 4.29409 3.07977 4.22503C2.92426 4.15598 2.78436 4.05614 2.66848 3.93155C2.55261 3.80695 2.46317 3.66018 2.40556 3.50008C2.34795 3.33998 2.32337 3.16987 2.33329 3.00001C2.33246 2.66198 2.46005 2.33625 2.69026 2.08872C2.92046 1.84119 3.23609 1.69034 3.57329 1.66668H16.3333C16.5101 1.66668 16.6797 1.59644 16.8047 1.47141C16.9297 1.34639 17 1.17682 17 1.00001C17 0.823199 16.9297 0.65363 16.8047 0.528606C16.6797 0.403581 16.5101 0.333344 16.3333 0.333344H3.57329C2.88234 0.357541 2.22781 0.64914 1.74772 1.14664C1.26763 1.64414 0.999531 2.30864 0.999954 3.00001C0.993505 3.1088 0.993505 3.21788 0.999954 3.32668C0.993531 3.37982 0.993531 3.43354 0.999954 3.48668V19C0.999531 19.6914 1.26763 20.3559 1.74772 20.8534C2.22781 21.3509 2.88234 21.6425 3.57329 21.6667H16.3333C16.5101 21.6667 16.6797 21.5964 16.8047 21.4714C16.9297 21.3464 17 21.1768 17 21V5.04668C17.0003 4.8653 16.9316 4.69059 16.8078 4.55808C16.6839 4.42557 16.5143 4.34521 16.3333 4.33334V4.33334ZM15.6666 20.3333H3.57329C3.23609 20.3097 2.92046 20.1588 2.69026 19.9113C2.46005 19.6638 2.33246 19.338 2.33329 19V5.36668C2.71235 5.57579 3.14056 5.67939 3.57329 5.66668H15.6666V20.3333Z" fill="#BEBEBE"/>
</svg>