<svg version="1.2" baseProfile="tiny-ps" xmlns="http://www.w3.org/2000/svg" viewBox="0 0 471 243" width="471" height="243">
	<title>logo_corpmsp_rus_full_black--rgb-ai</title>
	<style>
		tspan { white-space:pre }
		.shp0 { fill: #000000 } 
	</style>
	<g id="Слой 1">
		<g id="&lt;Group&gt;">
			<g id="&lt;Group&gt;">
				<g id="&lt;Group&gt;">
					<path id="&lt;Path&gt;" class="shp0" d="M171.95 37.82L12.6 5.77L12.6 157.07L18.83 158.31L18.83 13.69L171.95 44.08L171.95 37.82Z" />
					<path id="&lt;Path&gt;" class="shp0" d="M235.39 176.35L235.39 232.31L163.38 218.01L163.38 224.24L241.61 240.23L241.61 177.58L235.39 176.35Z" />
					<path id="&lt;Path&gt;" class="shp0" d="M520.02 194.61L524.54 194.61L524.54 67.26L520.02 67.26L520.02 194.61Z" />
				</g>
			</g>
			<g id="&lt;Group&gt;">
				<path id="&lt;Compound Path&gt;" class="shp0" d="M51.58 52.09L58.75 52.09L58.75 74.72L65.6 74.72L82.06 52.09L90.45 52.09L71.4 77.7L91.97 105.43L83.13 105.43L65.6 81.28L58.75 81.28L58.75 105.43L51.58 105.43L51.58 52.09Z" />
				<path id="&lt;Compound Path&gt;" fill-rule="evenodd" class="shp0" d="M114.07 106.04C108.63 106.04 104.35 104.44 101.23 101.24C98.1 98.04 96.54 93.45 96.54 87.45L96.54 85.32C96.54 79.37 98.11 74.79 101.27 71.56C104.41 68.34 108.68 66.72 114.07 66.72C119.5 66.72 123.78 68.32 126.91 71.53C130.03 74.72 131.59 79.32 131.59 85.32L131.59 87.45C131.59 93.39 130.02 97.98 126.87 101.2C123.72 104.43 119.45 106.04 114.07 106.04ZM114.07 99.8C117.27 99.8 119.79 98.79 121.65 96.78C123.5 94.78 124.43 91.67 124.43 87.45L124.43 85.32C124.43 81.15 123.5 78.05 121.65 76.02C119.79 73.99 117.27 72.97 114.07 72.97C110.87 72.97 108.34 73.98 106.49 75.98C104.63 77.99 103.7 81.1 103.7 85.32L103.7 87.45C103.7 91.62 104.63 94.72 106.49 96.75C108.34 98.78 110.87 99.8 114.07 99.8Z" />
				<path id="&lt;Compound Path&gt;" fill-rule="evenodd" class="shp0" d="M139.97 67.33L145.31 67.33L146.07 72.67L146.22 72.67C148 70.53 149.87 69.01 151.82 68.1C153.78 67.18 156.13 66.72 158.87 66.72C161.16 66.72 163.24 67.12 165.12 67.91C167 68.69 168.62 69.86 170 71.41C171.37 72.96 172.42 74.89 173.16 77.2C173.89 79.51 174.26 82.22 174.26 85.32L174.26 87.45C174.26 90.5 173.88 93.18 173.12 95.49C172.36 97.8 171.29 99.75 169.92 101.32C168.55 102.89 166.92 104.07 165.04 104.86C163.16 105.65 161.11 106.04 158.87 106.04C156.28 106.04 154.06 105.64 152.2 104.82C150.35 104.01 148.61 102.69 146.98 100.86L146.83 100.86L146.83 120.67L139.97 120.67L139.97 67.33ZM156.97 99.8C160.06 99.8 162.53 98.79 164.36 96.78C166.19 94.78 167.1 91.67 167.1 87.45L167.1 85.32C167.1 81.2 166.17 78.12 164.32 76.06C162.46 74 160.01 72.97 156.97 72.97C153.87 72.97 151.4 73.98 149.57 75.98C147.75 77.99 146.83 81.1 146.83 85.32L146.83 87.45C146.83 91.57 147.76 94.65 149.61 96.71C151.47 98.77 153.92 99.8 156.97 99.8Z" />
				<path id="&lt;Compound Path&gt;" class="shp0" d="M182.65 67.33L213.89 67.33L213.89 105.43L207.03 105.43L207.03 73.58L189.5 73.58L189.5 105.43L182.65 105.43L182.65 67.33Z" />
				<path id="&lt;Compound Path&gt;" fill-rule="evenodd" class="shp0" d="M239.8 106.04C234.36 106.04 230.08 104.44 226.96 101.24C223.83 98.04 222.27 93.45 222.27 87.45L222.27 85.32C222.27 79.37 223.84 74.79 226.99 71.56C230.14 68.34 234.41 66.72 239.8 66.72C245.23 66.72 249.51 68.32 252.63 71.53C255.76 74.72 257.32 79.32 257.32 85.32L257.32 87.45C257.32 93.39 255.75 97.98 252.6 101.2C249.45 104.43 245.18 106.04 239.8 106.04ZM239.8 99.8C243 99.8 245.52 98.79 247.38 96.78C249.23 94.78 250.16 91.67 250.16 87.45L250.16 85.32C250.16 81.15 249.23 78.05 247.38 76.02C245.52 73.99 243 72.97 239.8 72.97C236.59 72.97 234.07 73.98 232.21 75.98C230.36 77.99 229.43 81.1 229.43 85.32L229.43 87.45C229.43 91.62 230.36 94.72 232.21 96.75C234.07 98.78 236.59 99.8 239.8 99.8Z" />
				<path id="&lt;Compound Path&gt;" fill-rule="evenodd" class="shp0" d="M265.7 67.33L271.04 67.33L271.8 72.67L271.95 72.67C273.73 70.53 275.59 69.01 277.55 68.1C279.51 67.18 281.86 66.72 284.6 66.72C286.89 66.72 288.97 67.12 290.85 67.91C292.73 68.69 294.35 69.86 295.73 71.41C297.1 72.96 298.15 74.89 298.89 77.2C299.62 79.51 299.99 82.22 299.99 85.32L299.99 87.45C299.99 90.5 299.61 93.18 298.85 95.49C298.09 97.8 297.02 99.75 295.65 101.32C294.28 102.89 292.65 104.07 290.77 104.86C288.89 105.65 286.83 106.04 284.6 106.04C282.01 106.04 279.79 105.64 277.93 104.82C276.08 104.01 274.34 102.69 272.71 100.86L272.56 100.86L272.56 120.67L265.7 120.67L265.7 67.33ZM282.69 99.8C285.79 99.8 288.26 98.79 290.09 96.78C291.92 94.78 292.83 91.67 292.83 87.45L292.83 85.32C292.83 81.2 291.9 78.12 290.05 76.06C288.19 74 285.74 72.97 282.69 72.97C279.6 72.97 277.13 73.98 275.3 75.98C273.47 77.99 272.56 81.1 272.56 85.32L272.56 87.45C272.56 91.57 273.49 94.65 275.34 96.71C277.19 98.77 279.65 99.8 282.69 99.8Z" />
				<path id="&lt;Compound Path&gt;" fill-rule="evenodd" class="shp0" d="M318.66 106.04C314.34 106.04 311.1 105.03 308.94 103C306.79 100.96 305.71 98.2 305.71 94.69C305.71 90.88 306.99 87.87 309.55 85.66C312.12 83.45 316.3 82.34 322.09 82.34L330.85 82.34L330.85 80.29C330.85 77.8 330.2 75.96 328.91 74.76C327.61 73.57 325.47 72.97 322.47 72.97C319.73 72.97 317.72 73.44 316.45 74.38C315.18 75.32 314.44 76.53 314.24 78L307.23 78C307.33 76.43 307.73 74.95 308.41 73.58C309.1 72.21 310.07 71.02 311.35 70C312.61 68.98 314.18 68.19 316.03 67.6C317.89 67.02 320.03 66.72 322.47 66.72C327.7 66.72 331.55 67.89 334.01 70.23C336.48 72.57 337.71 76.05 337.71 80.67L337.71 105.43L332.38 105.43L331.54 99.72L331.39 99.72C328.29 103.94 324.04 106.04 318.66 106.04ZM319.42 99.8C321 99.8 322.48 99.53 323.88 98.99C325.28 98.45 326.5 97.71 327.54 96.77C328.58 95.82 329.39 94.72 329.98 93.47C330.56 92.22 330.85 90.87 330.85 89.44L330.85 88.06L322.47 88.06C318.91 88.06 316.42 88.66 315 89.86C313.58 91.07 312.87 92.64 312.87 94.58C312.87 96.11 313.41 97.37 314.51 98.34C315.6 99.31 317.24 99.8 319.42 99.8Z" />
				<path id="&lt;Compound Path&gt;" class="shp0" d="M377.33 105.43L348 105.43L348 67.33L354.85 67.33L354.85 99.19L372 99.19L372 67.33L378.86 67.33L378.86 99.19L384.19 99.19L384.19 115.34L377.33 115.34L377.33 105.43Z" />
				<path id="&lt;Compound Path&gt;" class="shp0" d="M390.67 67.33L397.53 67.33L397.53 97.05L397.68 97.05L414.29 67.33L423.44 67.33L423.44 105.43L416.58 105.43L416.58 75.72L416.42 75.72L399.81 105.43L390.67 105.43L390.67 67.33Z" />
				<path id="&lt;Compound Path&gt;" fill-rule="evenodd" class="shp0" d="M439.21 90.8C436.77 89.84 434.99 88.44 433.87 86.61C432.76 84.78 432.2 82.52 432.2 79.83C432.2 75.87 433.44 72.79 435.93 70.61C438.42 68.43 442.51 67.33 448.2 67.33L461.15 67.33L461.15 105.43L454.29 105.43L454.29 92.18C453.89 92.18 447.39 92.18 446.98 92.18C446.57 92.18 446.17 92.15 445.76 92.1L438.29 105.43L430.67 105.43L439.21 90.8ZM439.36 79.83C439.36 81.81 440.02 83.32 441.34 84.36C442.66 85.41 445.08 85.93 448.58 85.93L454.29 85.93L454.29 73.58L448.58 73.58C445.02 73.58 442.6 74.1 441.3 75.14C440.01 76.19 439.36 77.75 439.36 79.83Z" />
			</g>
			<g id="&lt;Group&gt;">
				<path id="&lt;Compound Path&gt;" class="shp0" d="M52.19 111.6L62.86 113.72L77.11 147.94L77.26 147.97L91.51 119.4L101.72 121.43L101.72 174.77L94.56 173.35L94.56 128.39L94.41 128.36L80.77 155.75L73.14 154.24L59.51 121.43L59.35 121.4L59.35 166.36L52.19 164.94L52.19 111.6Z" />
				<path id="&lt;Compound Path&gt;" class="shp0" d="M133.73 181.73C130.37 181.07 127.33 179.9 124.58 178.24C121.84 176.58 119.48 174.46 117.5 171.88C115.51 169.31 113.98 166.3 112.89 162.85C111.79 159.41 111.25 155.61 111.25 151.44L111.25 147.78C111.25 143.82 111.79 140.4 112.89 137.52C113.98 134.64 115.51 132.31 117.5 130.54C119.48 128.78 121.85 127.61 124.62 127.04C127.39 126.48 130.43 126.52 133.73 127.17C136.78 127.78 139.51 128.75 141.92 130.1C144.33 131.44 146.42 133.03 148.17 134.88C149.92 136.73 151.34 138.76 152.44 140.98C153.53 143.21 154.28 145.53 154.68 147.94L147.06 146.43C146.66 144.93 146.08 143.5 145.35 142.13C144.61 140.76 143.7 139.52 142.61 138.39C141.51 137.25 140.22 136.29 138.72 135.48C137.22 134.68 135.56 134.09 133.73 133.73C131.59 133.3 129.6 133.3 127.75 133.72C125.89 134.14 124.3 135.01 122.98 136.32C121.66 137.63 120.62 139.36 119.86 141.49C119.1 143.63 118.72 146.22 118.72 149.26L118.72 152.92C118.72 156.12 119.1 159.01 119.86 161.57C120.62 164.13 121.67 166.35 123.02 168.22C124.37 170.08 125.95 171.61 127.78 172.78C129.61 173.96 131.59 174.76 133.73 175.18C137.44 175.92 140.4 175.5 142.61 173.93C144.82 172.37 146.3 170.06 147.06 167.01L154.68 168.52C154.28 170.98 153.53 173.16 152.44 175.05C151.34 176.94 149.92 178.48 148.17 179.69C146.42 180.89 144.33 181.68 141.92 182.06C139.51 182.45 136.78 182.34 133.73 181.73Z" />
				<path id="&lt;Compound Path&gt;" class="shp0" d="M163.45 133.68L204.6 141.85L204.6 195.19L197.44 193.77L197.44 146.98L170.61 141.66L170.61 188.44L163.45 187.02L163.45 133.68Z" />
			</g>
			<g id="&lt;Group&gt;">
				<g id="&lt;Group&gt;">
					<path id="&lt;Compound Path&gt;" fill-rule="evenodd" class="shp0" d="M588.45 98.55L587.18 98.55C585.94 98.55 584.82 98.35 583.82 97.95C582.81 97.55 581.95 96.97 581.23 96.21C580.52 95.45 579.97 94.52 579.58 93.43C579.19 92.34 579 91.09 579 89.68L579 88.67C579 87.29 579.2 86.05 579.6 84.96C580 83.87 580.56 82.94 581.27 82.18C581.98 81.42 582.85 80.83 583.85 80.42C584.86 80.01 585.96 79.8 587.18 79.8L588.45 79.8L588.45 72.82L591.72 72.82L591.72 79.8L592.99 79.8C594.23 79.8 595.35 80 596.35 80.4C597.36 80.8 598.22 81.38 598.93 82.14C599.65 82.91 600.2 83.83 600.59 84.92C600.97 86.01 601.17 87.26 601.17 88.67L601.17 89.68C601.17 91.07 600.97 92.31 600.57 93.41C600.17 94.51 599.61 95.45 598.9 96.21C598.18 96.97 597.32 97.55 596.32 97.95C595.31 98.35 594.2 98.55 592.99 98.55L591.72 98.55L591.72 105.53L588.45 105.53L588.45 98.55ZM582.42 89.68C582.42 91.65 582.86 93.12 583.74 94.1C584.63 95.08 585.77 95.57 587.18 95.57L588.45 95.57L588.45 82.78L587.18 82.78C585.72 82.78 584.57 83.26 583.71 84.22C582.85 85.17 582.42 86.66 582.42 88.67L582.42 89.68ZM597.75 88.67C597.75 86.7 597.31 85.23 596.43 84.25C595.54 83.27 594.4 82.78 592.99 82.78L591.72 82.78L591.72 95.57L592.99 95.57C594.44 95.57 595.6 95.09 596.46 94.14C597.32 93.18 597.75 91.7 597.75 89.68L597.75 88.67Z" />
					<path id="&lt;Compound Path&gt;" fill-rule="evenodd" class="shp0" d="M612.8 98.55C611.51 98.55 610.36 98.35 609.33 97.95C608.3 97.55 607.42 96.97 606.69 96.21C605.97 95.45 605.41 94.52 605.02 93.43C604.63 92.34 604.44 91.09 604.44 89.68L604.44 88.67C604.44 87.26 604.63 86.01 605.02 84.91C605.41 83.8 605.96 82.88 606.67 82.13C607.39 81.38 608.25 80.8 609.25 80.4C610.26 80 611.38 79.8 612.62 79.8C613.85 79.8 614.97 80 615.98 80.4C616.98 80.8 617.84 81.39 618.56 82.17C619.27 82.95 619.82 83.9 620.21 85.01C620.6 86.13 620.79 87.42 620.79 88.88L620.79 90.19L607.85 90.19C607.9 91.9 608.35 93.23 609.18 94.16C610.02 95.1 611.16 95.57 612.62 95.57C613.78 95.57 614.73 95.36 615.49 94.92C616.24 94.49 616.81 93.79 617.19 92.83L620.61 92.83C620.17 94.71 619.28 96.14 617.94 97.1C616.6 98.07 614.88 98.55 612.8 98.55ZM612.62 82.78C611.24 82.78 610.14 83.18 609.34 83.98C608.55 84.78 608.06 85.94 607.89 87.47L617.38 87.47C617.09 84.34 615.5 82.78 612.62 82.78Z" />
					<path id="&lt;Compound Path&gt;" fill-rule="evenodd" class="shp0" d="M622.97 95.28L624.79 95.28C625.18 94.75 625.5 94.19 625.75 93.59C626.01 93 626.21 92.33 626.37 91.59C626.53 90.85 626.64 89.99 626.7 89.01C626.76 88.03 626.79 86.87 626.79 85.54L626.79 80.09L639.87 80.09L639.87 95.28L642.05 95.28L642.05 102.99L638.93 102.99L638.93 98.26L626.1 98.26L626.1 102.99L622.97 102.99L622.97 95.28ZM636.6 95.28L636.6 83.07L629.91 83.07L629.91 85.54C629.91 86.73 629.89 87.79 629.84 88.72C629.79 89.65 629.71 90.5 629.59 91.27C629.46 92.03 629.31 92.73 629.11 93.37C628.92 94.02 628.69 94.63 628.42 95.21L628.42 95.28L636.6 95.28Z" />
					<path id="&lt;Compound Path&gt;" fill-rule="evenodd" class="shp0" d="M652.77 98.55C651.49 98.55 650.33 98.35 649.3 97.95C648.27 97.55 647.39 96.97 646.67 96.21C645.94 95.45 645.38 94.52 644.99 93.43C644.61 92.34 644.41 91.09 644.41 89.68L644.41 88.67C644.41 87.26 644.61 86.01 644.99 84.91C645.38 83.8 645.93 82.88 646.65 82.13C647.36 81.38 648.22 80.8 649.23 80.4C650.23 80 651.36 79.8 652.59 79.8C653.83 79.8 654.95 80 655.95 80.4C656.96 80.8 657.82 81.39 658.53 82.17C659.25 82.95 659.8 83.9 660.19 85.01C660.57 86.13 660.77 87.42 660.77 88.88L660.77 90.19L647.83 90.19C647.88 91.9 648.32 93.23 649.16 94.16C649.99 95.1 651.14 95.57 652.59 95.57C653.75 95.57 654.71 95.36 655.46 94.92C656.21 94.49 656.78 93.79 657.17 92.83L660.59 92.83C660.15 94.71 659.26 96.14 657.91 97.1C656.57 98.07 654.86 98.55 652.77 98.55ZM652.59 82.78C651.21 82.78 650.12 83.18 649.32 83.98C648.52 84.78 648.04 85.94 647.87 87.47L657.35 87.47C657.06 84.34 655.47 82.78 652.59 82.78Z" />
					<path id="&lt;Compound Path&gt;" fill-rule="evenodd" class="shp0" d="M665.13 80.09L667.67 80.09L668.03 82.63L668.11 82.63C668.96 81.62 669.85 80.89 670.78 80.45C671.71 80.02 672.83 79.8 674.14 79.8C675.23 79.8 676.22 79.99 677.12 80.36C678.02 80.74 678.79 81.3 679.45 82.03C680.1 82.77 680.6 83.69 680.95 84.8C681.31 85.9 681.48 87.19 681.48 88.67L681.48 89.68C681.48 91.14 681.3 92.42 680.94 93.52C680.57 94.62 680.06 95.55 679.41 96.3C678.76 97.05 677.98 97.61 677.08 97.99C676.19 98.36 675.21 98.55 674.14 98.55C672.9 98.55 671.84 98.36 670.96 97.97C670.08 97.58 669.25 96.95 668.47 96.08L668.4 96.08L668.4 105.53L665.13 105.53L665.13 80.09ZM673.23 95.57C674.71 95.57 675.88 95.09 676.76 94.14C677.63 93.18 678.07 91.7 678.07 89.68L678.07 88.67C678.07 86.7 677.62 85.23 676.74 84.25C675.85 83.27 674.69 82.78 673.23 82.78C671.75 82.78 670.58 83.26 669.71 84.22C668.83 85.17 668.4 86.66 668.4 88.67L668.4 89.68C668.4 91.65 668.84 93.12 669.72 94.1C670.61 95.08 671.78 95.57 673.23 95.57Z" />
					<path id="&lt;Compound Path&gt;" fill-rule="evenodd" class="shp0" d="M690.75 98.55C688.69 98.55 687.14 98.07 686.12 97.1C685.08 96.13 684.57 94.81 684.57 93.14C684.57 91.32 685.18 89.88 686.41 88.83C687.63 87.78 689.62 87.25 692.38 87.25L696.56 87.25L696.56 86.27C696.56 85.08 696.25 84.2 695.64 83.63C695.02 83.06 693.99 82.78 692.56 82.78C691.26 82.78 690.3 83 689.69 83.45C689.09 83.9 688.74 84.48 688.64 85.18L685.3 85.18C685.35 84.43 685.53 83.72 685.86 83.07C686.19 82.42 686.65 81.85 687.26 81.36C687.87 80.88 688.61 80.5 689.49 80.22C690.38 79.94 691.4 79.8 692.56 79.8C695.06 79.8 696.9 80.36 698.07 81.47C699.25 82.59 699.83 84.25 699.83 86.45L699.83 98.26L697.29 98.26L696.89 95.54L696.82 95.54C695.34 97.55 693.32 98.55 690.75 98.55ZM691.11 95.57C691.86 95.57 692.57 95.44 693.24 95.19C693.9 94.93 694.48 94.58 694.98 94.13C695.48 93.68 695.87 93.15 696.14 92.55C696.42 91.96 696.56 91.32 696.56 90.63L696.56 89.98L692.56 89.98C690.87 89.98 689.68 90.26 689 90.83C688.33 91.41 687.99 92.16 687.99 93.08C687.99 93.82 688.25 94.41 688.77 94.88C689.29 95.34 690.07 95.57 691.11 95.57Z" />
					<path id="&lt;Compound Path&gt;" class="shp0" d="M702.92 95.57L703.47 95.57C704.17 95.57 704.72 95.34 705.12 94.88C705.52 94.42 705.81 93.76 705.99 92.9C706.17 92.04 706.28 91.01 706.32 89.79C706.36 88.58 706.38 87.23 706.38 85.72L706.38 80.09L719.46 80.09L719.46 98.26L716.19 98.26L716.19 83.07L709.65 83.07L709.65 85.72C709.65 87.4 709.61 89.01 709.54 90.56C709.46 92.11 709.23 93.48 708.85 94.66C708.46 95.85 707.85 96.8 707.01 97.5C706.17 98.2 704.99 98.55 703.47 98.55L702.92 98.55L702.92 95.57Z" />
					<path id="&lt;Compound Path&gt;" fill-rule="evenodd" class="shp0" d="M724.91 80.09L728.18 80.09L728.18 85.91L731.81 85.91C734.31 85.91 736.15 86.45 737.32 87.54C738.5 88.63 739.08 90.15 739.08 92.08C739.08 94 738.49 95.51 737.3 96.61C736.11 97.71 734.29 98.26 731.81 98.26L724.91 98.26L724.91 80.09ZM728.18 88.89L728.18 95.28L731.63 95.28C733.11 95.28 734.15 95.01 734.76 94.48C735.36 93.95 735.67 93.15 735.67 92.08C735.67 91.04 735.36 90.25 734.74 89.7C734.12 89.16 733.09 88.89 731.63 88.89L728.18 88.89Z" />
					<path id="&lt;Compound Path&gt;" class="shp0" d="M742.72 80.09L745.99 80.09L745.99 87.5L755.07 87.5L755.07 80.09L758.34 80.09L758.34 98.26L755.07 98.26L755.07 90.48L745.99 90.48L745.99 98.26L742.72 98.26L742.72 80.09Z" />
					<path id="&lt;Compound Path&gt;" fill-rule="evenodd" class="shp0" d="M768.7 98.55C766.64 98.55 765.1 98.07 764.07 97.1C763.04 96.13 762.52 94.81 762.52 93.14C762.52 91.32 763.13 89.88 764.36 88.83C765.58 87.78 767.57 87.25 770.34 87.25L774.51 87.25L774.51 86.27C774.51 85.08 774.21 84.2 773.59 83.63C772.97 83.06 771.95 82.78 770.52 82.78C769.21 82.78 768.25 83 767.65 83.45C767.04 83.9 766.69 84.48 766.59 85.18L763.25 85.18C763.3 84.43 763.49 83.72 763.81 83.07C764.14 82.42 764.61 81.85 765.21 81.36C765.82 80.88 766.56 80.5 767.45 80.22C768.33 79.94 769.35 79.8 770.52 79.8C773.01 79.8 774.85 80.36 776.02 81.47C777.2 82.59 777.79 84.25 777.79 86.45L777.79 98.26L775.24 98.26L774.84 95.54L774.77 95.54C773.29 97.55 771.27 98.55 768.7 98.55ZM769.06 95.57C769.81 95.57 770.52 95.44 771.19 95.19C771.86 94.93 772.44 94.58 772.93 94.13C773.43 93.68 773.82 93.15 774.1 92.55C774.37 91.96 774.51 91.32 774.51 90.63L774.51 89.98L770.52 89.98C768.82 89.98 767.63 90.26 766.96 90.83C766.28 91.41 765.94 92.16 765.94 93.08C765.94 93.82 766.2 94.41 766.72 94.88C767.24 95.34 768.02 95.57 769.06 95.57Z" />
					<path id="&lt;Compound Path&gt;" fill-rule="evenodd" class="shp0" d="M785.49 91.28C784.33 90.82 783.48 90.16 782.95 89.28C782.41 88.41 782.15 87.34 782.15 86.05C782.15 84.16 782.74 82.7 783.93 81.65C785.11 80.61 787.07 80.09 789.78 80.09L795.96 80.09L795.96 98.26L792.69 98.26L792.69 91.94C792.49 91.94 789.39 91.94 789.2 91.94C789 91.94 788.81 91.93 788.62 91.9L785.05 98.26L781.42 98.26L785.49 91.28ZM785.56 86.05C785.56 87 785.88 87.72 786.51 88.21C787.14 88.71 788.29 88.96 789.96 88.96L792.69 88.96L792.69 83.07L789.96 83.07C788.26 83.07 787.11 83.32 786.49 83.82C785.87 84.31 785.56 85.06 785.56 86.05Z" />
					<path id="&lt;Compound Path&gt;" class="shp0" d="M810.49 80.09L813.76 80.09L813.76 87.32L816.31 87.32L821.25 80.09L825.03 80.09L818.89 88.7L825.76 98.26L821.83 98.26L816.31 90.3L813.76 90.3L813.76 98.26L810.49 98.26L810.49 80.09Z" />
					<path id="&lt;Compound Path&gt;" fill-rule="evenodd" class="shp0" d="M836.3 98.55C833.7 98.55 831.66 97.79 830.17 96.26C828.68 94.74 827.94 92.54 827.94 89.68L827.94 88.67C827.94 85.83 828.69 83.65 830.19 82.11C831.69 80.57 833.73 79.8 836.3 79.8C838.89 79.8 840.93 80.56 842.42 82.09C843.91 83.62 844.65 85.81 844.65 88.67L844.65 89.68C844.65 92.52 843.9 94.71 842.4 96.24C840.9 97.78 838.86 98.55 836.3 98.55ZM836.3 95.57C837.82 95.57 839.03 95.09 839.91 94.14C840.79 93.18 841.24 91.7 841.24 89.68L841.24 88.67C841.24 86.68 840.79 85.2 839.91 84.23C839.03 83.27 837.82 82.78 836.3 82.78C834.77 82.78 833.56 83.26 832.68 84.22C831.79 85.17 831.35 86.66 831.35 88.67L831.35 89.68C831.35 91.67 831.79 93.15 832.68 94.12C833.56 95.09 834.77 95.57 836.3 95.57Z" />
					<path id="&lt;Compound Path&gt;" fill-rule="evenodd" class="shp0" d="M849.01 80.09L851.56 80.09L851.92 82.63L851.99 82.63C852.84 81.62 853.73 80.89 854.67 80.45C855.6 80.02 856.72 79.8 858.03 79.8C859.12 79.8 860.11 79.99 861.01 80.36C861.9 80.74 862.68 81.3 863.33 82.03C863.99 82.77 864.49 83.69 864.84 84.8C865.19 85.9 865.37 87.19 865.37 88.67L865.37 89.68C865.37 91.14 865.19 92.42 864.82 93.52C864.46 94.62 863.95 95.55 863.3 96.3C862.64 97.05 861.87 97.61 860.97 97.99C860.07 98.36 859.09 98.55 858.03 98.55C856.79 98.55 855.73 98.36 854.85 97.97C853.96 97.58 853.13 96.95 852.36 96.08L852.29 96.08L852.29 105.53L849.01 105.53L849.01 80.09ZM857.12 95.57C858.6 95.57 859.77 95.09 860.64 94.14C861.52 93.18 861.95 91.7 861.95 89.68L861.95 88.67C861.95 86.7 861.51 85.23 860.63 84.25C859.74 83.27 858.57 82.78 857.12 82.78C855.64 82.78 854.46 83.26 853.59 84.22C852.72 85.17 852.29 86.66 852.29 88.67L852.29 89.68C852.29 91.65 852.73 93.12 853.61 94.1C854.5 95.08 855.66 95.57 857.12 95.57Z" />
					<path id="&lt;Compound Path&gt;" class="shp0" d="M869.73 80.09L884.63 80.09L884.63 98.26L881.36 98.26L881.36 83.07L873 83.07L873 98.26L869.73 98.26L869.73 80.09Z" />
					<path id="&lt;Compound Path&gt;" fill-rule="evenodd" class="shp0" d="M897.35 98.55C894.75 98.55 892.71 97.79 891.22 96.26C889.73 94.74 888.99 92.54 888.99 89.68L888.99 88.67C888.99 85.83 889.74 83.65 891.24 82.11C892.74 80.57 894.78 79.8 897.35 79.8C899.94 79.8 901.98 80.56 903.47 82.09C904.96 83.62 905.71 85.81 905.71 88.67L905.71 89.68C905.71 92.52 904.96 94.71 903.45 96.24C901.95 97.78 899.92 98.55 897.35 98.55ZM897.35 95.57C898.87 95.57 900.08 95.09 900.96 94.14C901.85 93.18 902.29 91.7 902.29 89.68L902.29 88.67C902.29 86.68 901.85 85.2 900.96 84.23C900.08 83.27 898.87 82.78 897.35 82.78C895.82 82.78 894.62 83.26 893.73 84.22C892.85 85.17 892.4 86.66 892.4 88.67L892.4 89.68C892.4 91.67 892.85 93.15 893.73 94.12C894.62 95.09 895.82 95.57 897.35 95.57Z" />
					<path id="&lt;Compound Path&gt;" fill-rule="evenodd" class="shp0" d="M910.07 80.09L912.61 80.09L912.97 82.63L913.05 82.63C913.89 81.62 914.78 80.89 915.72 80.45C916.65 80.02 917.77 79.8 919.08 79.8C920.17 79.8 921.16 79.99 922.06 80.36C922.96 80.74 923.73 81.3 924.39 82.03C925.04 82.77 925.54 83.69 925.89 84.8C926.24 85.9 926.42 87.19 926.42 88.67L926.42 89.68C926.42 91.14 926.24 92.42 925.87 93.52C925.51 94.62 925 95.55 924.35 96.3C923.7 97.05 922.92 97.61 922.02 97.99C921.13 98.36 920.14 98.55 919.08 98.55C917.84 98.55 916.78 98.36 915.9 97.97C915.01 97.58 914.18 96.95 913.41 96.08L913.34 96.08L913.34 105.53L910.07 105.53L910.07 80.09ZM918.17 95.57C919.65 95.57 920.82 95.09 921.7 94.14C922.57 93.18 923 91.7 923 89.68L923 88.67C923 86.7 922.56 85.23 921.68 84.25C920.79 83.27 919.62 82.78 918.17 82.78C916.69 82.78 915.52 83.26 914.65 84.22C913.77 85.17 913.34 86.66 913.34 88.67L913.34 89.68C913.34 91.65 913.78 93.12 914.66 94.1C915.55 95.08 916.72 95.57 918.17 95.57Z" />
					<path id="&lt;Compound Path&gt;" fill-rule="evenodd" class="shp0" d="M935.69 98.55C933.63 98.55 932.08 98.07 931.05 97.1C930.02 96.13 929.51 94.81 929.51 93.14C929.51 91.32 930.12 89.88 931.34 88.83C932.57 87.78 934.56 87.25 937.32 87.25L941.5 87.25L941.5 86.27C941.5 85.08 941.19 84.2 940.58 83.63C939.96 83.06 938.93 82.78 937.5 82.78C936.2 82.78 935.24 83 934.63 83.45C934.03 83.9 933.68 84.48 933.58 85.18L930.24 85.18C930.28 84.43 930.47 83.72 930.8 83.07C931.13 82.42 931.59 81.85 932.2 81.36C932.8 80.88 933.55 80.5 934.43 80.22C935.32 79.94 936.34 79.8 937.5 79.8C940 79.8 941.83 80.36 943.01 81.47C944.19 82.59 944.77 84.25 944.77 86.45L944.77 98.26L942.23 98.26L941.83 95.54L941.76 95.54C940.28 97.55 938.25 98.55 935.69 98.55ZM936.05 95.57C936.8 95.57 937.51 95.44 938.18 95.19C938.84 94.93 939.42 94.58 939.92 94.13C940.42 93.68 940.81 93.15 941.08 92.55C941.36 91.96 941.5 91.32 941.5 90.63L941.5 89.98L937.5 89.98C935.81 89.98 934.62 90.26 933.94 90.83C933.26 91.41 932.93 92.16 932.93 93.08C932.93 93.82 933.19 94.41 933.71 94.88C934.23 95.34 935.01 95.57 936.05 95.57Z" />
					<path id="&lt;Compound Path&gt;" class="shp0" d="M964.03 98.26L950.04 98.26L950.04 80.09L953.31 80.09L953.31 95.28L961.49 95.28L961.49 80.09L964.76 80.09L964.76 95.28L967.3 95.28L967.3 102.99L964.03 102.99L964.03 98.26Z" />
					<path id="&lt;Compound Path&gt;" class="shp0" d="M970.76 80.09L974.03 80.09L974.03 94.26L974.1 94.26L982.02 80.09L986.38 80.09L986.38 98.26L983.11 98.26L983.11 84.09L983.04 84.09L975.12 98.26L970.76 98.26L970.76 80.09Z" />
					<path id="&lt;Compound Path&gt;" fill-rule="evenodd" class="shp0" d="M994.27 91.28C993.11 90.82 992.26 90.16 991.73 89.28C991.19 88.41 990.93 87.34 990.93 86.05C990.93 84.16 991.52 82.7 992.71 81.65C993.89 80.61 995.84 80.09 998.56 80.09L1004.74 80.09L1004.74 98.26L1001.46 98.26L1001.46 91.94C1001.27 91.94 998.17 91.94 997.98 91.94C997.78 91.94 997.59 91.93 997.39 91.9L993.83 98.26L990.2 98.26L994.27 91.28ZM994.34 86.05C994.34 87 994.66 87.72 995.29 88.21C995.92 88.71 997.07 88.96 998.74 88.96L1001.46 88.96L1001.46 83.07L998.74 83.07C997.04 83.07 995.89 83.32 995.27 83.82C994.65 84.31 994.34 85.06 994.34 86.05Z" />
					<path id="&lt;Compound Path&gt;" class="shp0" d="M580.09 122.29L594.99 122.29L594.99 140.46L591.72 140.46L591.72 125.27L583.36 125.27L583.36 140.46L580.09 140.46L580.09 122.29Z" />
					<path id="&lt;Compound Path&gt;" fill-rule="evenodd" class="shp0" d="M607.71 140.76C605.12 140.76 603.08 139.99 601.59 138.47C600.1 136.94 599.35 134.75 599.35 131.89L599.35 130.87C599.35 128.04 600.1 125.85 601.6 124.31C603.11 122.77 605.14 122 607.71 122C610.3 122 612.34 122.77 613.83 124.29C615.32 125.82 616.07 128.01 616.07 130.87L616.07 131.89C616.07 134.72 615.32 136.91 613.82 138.45C612.31 139.99 610.28 140.76 607.71 140.76ZM607.71 137.78C609.24 137.78 610.44 137.3 611.33 136.34C612.21 135.38 612.65 133.9 612.65 131.89L612.65 130.87C612.65 128.88 612.21 127.41 611.33 126.44C610.44 125.47 609.24 124.98 607.71 124.98C606.18 124.98 604.98 125.46 604.09 126.42C603.21 127.38 602.77 128.86 602.77 130.87L602.77 131.89C602.77 133.87 603.21 135.35 604.09 136.32C604.98 137.29 606.18 137.78 607.71 137.78Z" />
					<path id="&lt;Compound Path&gt;" fill-rule="evenodd" class="shp0" d="M629.51 122.29L632.06 122.29L632.42 124.84L632.49 124.84C633.34 123.82 634.23 123.09 635.16 122.66C636.1 122.22 637.22 122 638.53 122C639.62 122 640.61 122.19 641.51 122.57C642.4 122.94 643.18 123.5 643.83 124.24C644.49 124.98 644.99 125.9 645.34 127C645.69 128.1 645.87 129.39 645.87 130.87L645.87 131.89C645.87 133.34 645.69 134.62 645.32 135.72C644.96 136.83 644.45 137.75 643.8 138.5C643.14 139.25 642.37 139.82 641.47 140.19C640.57 140.57 639.59 140.76 638.53 140.76C637.29 140.76 636.23 140.56 635.35 140.17C634.46 139.79 633.63 139.16 632.86 138.28L632.78 138.28L632.78 147.73L629.51 147.73L629.51 122.29ZM637.62 137.78C639.09 137.78 640.27 137.3 641.14 136.34C642.01 135.38 642.45 133.9 642.45 131.89L642.45 130.87C642.45 128.91 642.01 127.44 641.12 126.46C640.24 125.47 639.07 124.98 637.62 124.98C636.14 124.98 634.96 125.46 634.09 126.42C633.22 127.38 632.78 128.86 632.78 130.87L632.78 131.89C632.78 133.85 633.23 135.32 634.11 136.3C634.99 137.28 636.16 137.78 637.62 137.78Z" />
					<path id="&lt;Compound Path&gt;" fill-rule="evenodd" class="shp0" d="M655.13 140.76C653.07 140.76 651.53 140.27 650.5 139.3C649.47 138.33 648.96 137.01 648.96 135.34C648.96 133.52 649.57 132.09 650.79 131.03C652.01 129.98 654.01 129.45 656.77 129.45L660.95 129.45L660.95 128.47C660.95 127.29 660.64 126.41 660.02 125.84C659.4 125.27 658.38 124.98 656.95 124.98C655.64 124.98 654.68 125.21 654.08 125.66C653.47 126.1 653.12 126.68 653.03 127.38L649.68 127.38C649.73 126.63 649.92 125.93 650.25 125.27C650.57 124.62 651.04 124.05 651.65 123.57C652.25 123.08 653 122.7 653.88 122.42C654.76 122.14 655.79 122 656.95 122C659.45 122 661.28 122.56 662.46 123.67C663.63 124.79 664.22 126.45 664.22 128.65L664.22 140.46L661.68 140.46L661.28 137.74L661.2 137.74C659.72 139.75 657.7 140.76 655.13 140.76ZM655.5 137.78C656.25 137.78 656.96 137.65 657.62 137.39C658.29 137.14 658.87 136.78 659.37 136.33C659.86 135.88 660.25 135.36 660.53 134.76C660.81 134.16 660.95 133.52 660.95 132.84L660.95 132.18L656.95 132.18C655.25 132.18 654.07 132.47 653.39 133.04C652.71 133.61 652.37 134.36 652.37 135.29C652.37 136.02 652.63 136.62 653.15 137.08C653.67 137.54 654.46 137.78 655.5 137.78Z" />
					<path id="&lt;Compound Path&gt;" class="shp0" d="M675.49 140.76C672.96 140.76 671.11 140.22 669.92 139.16C668.74 138.09 668.05 136.59 667.85 134.65L671.27 134.65C671.46 135.67 671.86 136.44 672.47 136.98C673.07 137.51 674.08 137.78 675.49 137.78C676.91 137.78 677.91 137.55 678.48 137.08C679.05 136.62 679.34 136.01 679.34 135.23C679.34 134.46 679.05 133.84 678.48 133.38C677.91 132.92 676.91 132.69 675.49 132.69L673.49 132.69L673.49 129.71L675.49 129.71C676.67 129.71 677.52 129.49 678.03 129.05C678.54 128.62 678.79 128.05 678.79 127.34C678.79 126.64 678.54 126.07 678.03 125.64C677.52 125.2 676.67 124.98 675.49 124.98C674.3 124.98 673.44 125.22 672.9 125.69C672.37 126.16 672.01 126.85 671.81 127.75L668.4 127.75C668.59 125.95 669.25 124.55 670.38 123.53C671.51 122.51 673.21 122 675.49 122C677.76 122 679.45 122.49 680.55 123.46C681.66 124.43 682.21 125.67 682.21 127.2C682.21 129.02 681.43 130.3 679.88 131.05L679.88 131.13C681.8 131.9 682.75 133.32 682.75 135.38C682.75 136.95 682.17 138.24 680.99 139.25C679.81 140.25 677.98 140.76 675.49 140.76Z" />
					<path id="&lt;Compound Path&gt;" fill-rule="evenodd" class="shp0" d="M687.11 122.29L694.2 122.29C696.58 122.29 698.29 122.75 699.34 123.67C700.4 124.59 700.92 125.81 700.92 127.34C700.92 128.11 700.73 128.81 700.34 129.42C699.95 130.04 699.4 130.55 698.67 130.96L698.67 131.04C699.62 131.42 700.35 131.98 700.87 132.69C701.39 133.41 701.65 134.24 701.65 135.19C701.65 136.84 701.12 138.13 700.07 139.06C699.02 140 697.3 140.46 694.93 140.46L687.11 140.46L687.11 122.29ZM697.51 127.53C697.51 126.83 697.26 126.27 696.76 125.87C696.27 125.47 695.35 125.27 694.02 125.27L690.39 125.27L690.39 129.82L694.02 129.82C695.35 129.82 696.27 129.62 696.76 129.22C697.26 128.82 697.51 128.25 697.51 127.53ZM698.23 135C698.23 134.21 697.98 133.61 697.47 133.18C696.96 132.76 696.05 132.54 694.75 132.54L690.39 132.54L690.39 137.48L694.75 137.48C696.05 137.48 696.96 137.27 697.47 136.84C697.98 136.42 698.23 135.8 698.23 135Z" />
					<path id="&lt;Compound Path&gt;" class="shp0" d="M706.01 122.29L709.28 122.29L709.28 136.47L709.35 136.47L717.28 122.29L721.64 122.29L721.64 140.46L718.37 140.46L718.37 126.29L718.29 126.29L710.37 140.46L706.01 140.46L706.01 122.29Z" />
					<path id="&lt;Compound Path&gt;" class="shp0" d="M730.72 125.27L724.91 125.27L724.91 122.29L739.81 122.29L739.81 125.27L733.99 125.27L733.99 140.46L730.72 140.46L730.72 125.27Z" />
					<path id="&lt;Compound Path&gt;" class="shp0" d="M743.08 122.29L746.35 122.29L746.35 136.47L746.42 136.47L754.34 122.29L758.71 122.29L758.71 140.46L755.43 140.46L755.43 126.29L755.36 126.29L747.44 140.46L743.08 140.46L743.08 122.29Z" />
					<path id="&lt;Compound Path&gt;" fill-rule="evenodd" class="shp0" d="M764.16 122.29L767.43 122.29L767.43 129.71L770.73 129.71C770.93 127.24 771.73 125.33 773.15 124C774.57 122.67 776.42 122 778.69 122C781.14 122 783.08 122.76 784.53 124.27C785.97 125.79 786.69 127.99 786.69 130.87L786.69 131.89C786.69 134.75 785.96 136.94 784.51 138.47C783.05 139.99 781.12 140.76 778.69 140.76C776.34 140.76 774.45 140.06 773.02 138.68C771.59 137.3 770.82 135.3 770.7 132.69L767.43 132.69L767.43 140.46L764.16 140.46L764.16 122.29ZM778.69 137.78C780.1 137.78 781.21 137.31 782.04 136.38C782.86 135.44 783.27 133.95 783.27 131.89L783.27 130.87C783.27 128.81 782.85 127.32 782.02 126.38C781.18 125.45 780.07 124.98 778.69 124.98C777.26 124.98 776.14 125.44 775.31 126.36C774.49 127.29 774.08 128.73 774.08 130.69L774.08 131.71C774.08 133.84 774.5 135.38 775.33 136.34C776.17 137.3 777.29 137.78 778.69 137.78Z" />
					<path id="&lt;Compound Path&gt;" class="shp0" d="M800.13 122.29L805 122.29L809.84 132.65L809.91 132.65L814.74 122.29L819.4 122.29L819.4 140.46L816.12 140.46L816.12 126.29L816.05 126.29L811.4 136.28L808.13 136.28L803.48 126.29L803.41 126.29L803.41 140.46L800.13 140.46L800.13 122.29Z" />
					<path id="&lt;Compound Path&gt;" fill-rule="evenodd" class="shp0" d="M829.75 140.76C827.69 140.76 826.15 140.27 825.12 139.3C824.09 138.33 823.57 137.01 823.57 135.34C823.57 133.52 824.19 132.09 825.41 131.03C826.63 129.98 828.62 129.45 831.39 129.45L835.57 129.45L835.57 128.47C835.57 127.29 835.26 126.41 834.64 125.84C834.02 125.27 833 124.98 831.57 124.98C830.26 124.98 829.3 125.21 828.7 125.66C828.09 126.1 827.74 126.68 827.64 127.38L824.3 127.38C824.35 126.63 824.54 125.93 824.86 125.27C825.19 124.62 825.66 124.05 826.26 123.57C826.87 123.08 827.61 122.7 828.5 122.42C829.38 122.14 830.41 122 831.57 122C834.06 122 835.9 122.56 837.07 123.67C838.25 124.79 838.84 126.45 838.84 128.65L838.84 140.46L836.29 140.46L835.89 137.74L835.82 137.74C834.34 139.75 832.32 140.76 829.75 140.76ZM830.12 137.78C830.87 137.78 831.57 137.65 832.24 137.39C832.91 137.14 833.49 136.78 833.98 136.33C834.48 135.88 834.87 135.36 835.15 134.76C835.43 134.16 835.57 133.52 835.57 132.84L835.57 132.18L831.57 132.18C829.87 132.18 828.69 132.47 828.01 133.04C827.33 133.61 826.99 134.36 826.99 135.29C826.99 136.02 827.25 136.62 827.77 137.08C828.29 137.54 829.07 137.78 830.12 137.78Z" />
					<path id="&lt;Compound Path&gt;" class="shp0" d="M841.93 137.78L842.47 137.78C843.17 137.78 843.73 137.55 844.13 137.08C844.53 136.62 844.82 135.96 845 135.1C845.18 134.24 845.29 133.21 845.32 132C845.36 130.79 845.38 129.43 845.38 127.93L845.38 122.29L858.46 122.29L858.46 140.46L855.19 140.46L855.19 125.27L848.65 125.27L848.65 127.93C848.65 129.6 848.61 131.21 848.54 132.76C848.47 134.31 848.24 135.68 847.85 136.87C847.46 138.05 846.85 139 846.01 139.7C845.18 140.4 844 140.76 842.47 140.76L841.93 140.76L841.93 137.78Z" />
					<path id="&lt;Compound Path&gt;" fill-rule="evenodd" class="shp0" d="M871.18 140.76C868.59 140.76 866.55 139.99 865.06 138.47C863.57 136.94 862.82 134.75 862.82 131.89L862.82 130.87C862.82 128.04 863.57 125.85 865.08 124.31C866.58 122.77 868.61 122 871.18 122C873.77 122 875.81 122.77 877.3 124.29C878.79 125.82 879.54 128.01 879.54 130.87L879.54 131.89C879.54 134.72 878.79 136.91 877.29 138.45C875.78 139.99 873.75 140.76 871.18 140.76ZM871.18 137.78C872.71 137.78 873.91 137.3 874.8 136.34C875.68 135.38 876.12 133.9 876.12 131.89L876.12 130.87C876.12 128.88 875.68 127.41 874.8 126.44C873.91 125.47 872.71 124.98 871.18 124.98C869.65 124.98 868.45 125.46 867.57 126.42C866.68 127.38 866.24 128.86 866.24 130.87L866.24 131.89C866.24 133.87 866.68 135.35 867.57 136.32C868.45 137.29 869.65 137.78 871.18 137.78Z" />
					<path id="&lt;Compound Path&gt;" class="shp0" d="M883.9 122.29L896.07 122.29L896.07 125.27L887.17 125.27L887.17 140.46L883.9 140.46L883.9 122.29Z" />
					<path id="&lt;Compound Path&gt;" fill-rule="evenodd" class="shp0" d="M906.61 140.76C904.02 140.76 901.98 139.99 900.49 138.47C899 136.94 898.25 134.75 898.25 131.89L898.25 130.87C898.25 128.04 899.01 125.85 900.51 124.31C902.01 122.77 904.05 122 906.61 122C909.21 122 911.25 122.77 912.74 124.29C914.23 125.82 914.97 128.01 914.97 130.87L914.97 131.89C914.97 134.72 914.22 136.91 912.72 138.45C911.22 139.99 909.18 140.76 906.61 140.76ZM906.61 137.78C908.14 137.78 909.34 137.3 910.23 136.34C911.11 135.38 911.56 133.9 911.56 131.89L911.56 130.87C911.56 128.88 911.11 127.41 910.23 126.44C909.34 125.47 908.14 124.98 906.61 124.98C905.09 124.98 903.88 125.46 903 126.42C902.11 127.38 901.67 128.86 901.67 130.87L901.67 131.89C901.67 133.87 902.11 135.35 903 136.32C903.88 137.29 905.09 137.78 906.61 137.78Z" />
					<path id="&lt;Compound Path&gt;" class="shp0" d="M928.42 122.29L931.69 122.29L931.69 136.47L931.76 136.47L939.68 122.29L944.05 122.29L944.05 140.46L940.77 140.46L940.77 126.29L940.7 126.29L932.78 140.46L928.42 140.46L928.42 122.29Z" />
					<path id="&lt;Compound Path&gt;" class="shp0" d="M965.49 140.76C963.04 140.76 961.09 139.99 959.65 138.47C958.21 136.94 957.49 134.69 957.49 131.71L957.49 130.69C957.49 129.31 957.69 128.08 958.07 127.02C958.46 125.95 959 125.04 959.69 124.29C960.38 123.54 961.22 122.97 962.2 122.58C963.18 122.2 964.27 122 965.49 122C966.63 122 967.64 122.15 968.52 122.46C969.4 122.76 970.16 123.17 970.79 123.67C971.42 124.18 971.93 124.79 972.32 125.49C972.71 126.2 972.97 126.95 973.12 127.75L969.7 127.75C969.43 126.97 968.98 126.32 968.34 125.78C967.7 125.25 966.81 124.98 965.67 124.98C964.21 124.98 963.06 125.45 962.2 126.38C961.34 127.32 960.91 128.75 960.91 130.69L960.91 131.71C960.91 133.81 961.34 135.35 962.2 136.32C963.06 137.29 964.21 137.78 965.67 137.78C966.81 137.78 967.7 137.49 968.34 136.92C968.98 136.35 969.43 135.59 969.7 134.65L973.12 134.65C972.97 135.55 972.71 136.36 972.32 137.1C971.93 137.84 971.42 138.48 970.79 139.03C970.16 139.57 969.4 140 968.52 140.3C967.64 140.6 966.63 140.76 965.49 140.76Z" />
					<path id="&lt;Compound Path&gt;" fill-rule="evenodd" class="shp0" d="M976.93 122.29L979.48 122.29L979.84 124.84L979.91 124.84C980.76 123.82 981.65 123.09 982.58 122.66C983.52 122.22 984.64 122 985.95 122C987.04 122 988.03 122.19 988.93 122.57C989.82 122.94 990.6 123.5 991.25 124.24C991.91 124.98 992.41 125.9 992.76 127C993.11 128.1 993.29 129.39 993.29 130.87L993.29 131.89C993.29 133.34 993.11 134.62 992.74 135.72C992.38 136.83 991.87 137.75 991.21 138.5C990.56 139.25 989.78 139.82 988.89 140.19C987.99 140.57 987.01 140.76 985.95 140.76C984.71 140.76 983.65 140.56 982.77 140.17C981.88 139.79 981.05 139.16 980.28 138.28L980.2 138.28L980.2 147.73L976.93 147.73L976.93 122.29ZM985.04 137.78C986.51 137.78 987.69 137.3 988.56 136.34C989.43 135.38 989.87 133.9 989.87 131.89L989.87 130.87C989.87 128.91 989.43 127.44 988.54 126.46C987.66 125.47 986.49 124.98 985.04 124.98C983.56 124.98 982.38 125.46 981.51 126.42C980.64 127.38 980.2 128.86 980.2 130.87L980.2 131.89C980.2 133.85 980.65 135.32 981.53 136.3C982.41 137.28 983.58 137.78 985.04 137.78Z" />
					<path id="&lt;Compound Path&gt;" fill-rule="evenodd" class="shp0" d="M1004.92 140.76C1003.63 140.76 1002.47 140.55 1001.45 140.16C1000.41 139.76 999.54 139.17 998.81 138.41C998.08 137.65 997.53 136.72 997.14 135.63C996.75 134.54 996.56 133.29 996.56 131.89L996.56 130.87C996.56 129.47 996.75 128.21 997.14 127.11C997.53 126.01 998.08 125.08 998.79 124.33C999.51 123.58 1000.37 123 1001.37 122.6C1002.38 122.2 1003.5 122 1004.73 122C1005.97 122 1007.09 122.2 1008.1 122.61C1009.1 123.01 1009.96 123.6 1010.68 124.37C1011.39 125.15 1011.94 126.1 1012.33 127.22C1012.72 128.34 1012.91 129.63 1012.91 131.08L1012.91 132.4L999.97 132.4C1000.02 134.11 1000.46 135.43 1001.3 136.37C1002.14 137.31 1003.28 137.78 1004.73 137.78C1005.9 137.78 1006.85 137.56 1007.61 137.13C1008.36 136.69 1008.93 136 1009.31 135.03L1012.73 135.03C1012.29 136.92 1011.4 138.34 1010.06 139.31C1008.71 140.27 1007 140.76 1004.92 140.76ZM1004.73 124.98C1003.35 124.98 1002.26 125.38 1001.46 126.18C1000.66 126.98 1000.18 128.15 1000.01 129.67L1009.49 129.67C1009.2 126.55 1007.62 124.98 1004.73 124.98Z" />
					<path id="&lt;Compound Path&gt;" fill-rule="evenodd" class="shp0" d="M1015.09 137.48L1016.91 137.48C1017.3 136.95 1017.62 136.39 1017.87 135.79C1018.13 135.2 1018.33 134.54 1018.49 133.8C1018.65 133.06 1018.75 132.2 1018.82 131.22C1018.88 130.23 1018.91 129.08 1018.91 127.75L1018.91 122.29L1031.99 122.29L1031.99 137.48L1034.17 137.48L1034.17 145.19L1031.04 145.19L1031.04 140.46L1018.22 140.46L1018.22 145.19L1015.09 145.19L1015.09 137.48ZM1028.72 137.48L1028.72 125.27L1022.03 125.27L1022.03 127.75C1022.03 128.93 1022.01 129.99 1021.96 130.92C1021.91 131.86 1021.83 132.71 1021.71 133.47C1021.58 134.23 1021.43 134.94 1021.23 135.58C1021.04 136.22 1020.81 136.83 1020.54 137.41L1020.54 137.48L1028.72 137.48Z" />
					<path id="&lt;Compound Path&gt;" class="shp0" d="M1037.62 122.29L1040.89 122.29L1040.89 129.71L1049.98 129.71L1049.98 122.29L1053.25 122.29L1053.25 140.46L1049.98 140.46L1049.98 132.69L1040.89 132.69L1040.89 140.46L1037.62 140.46L1037.62 122.29Z" />
					<path id="&lt;Compound Path&gt;" fill-rule="evenodd" class="shp0" d="M1065.97 140.76C1064.68 140.76 1063.53 140.55 1062.5 140.16C1061.47 139.76 1060.59 139.17 1059.86 138.41C1059.14 137.65 1058.58 136.72 1058.19 135.63C1057.8 134.54 1057.61 133.29 1057.61 131.89L1057.61 130.87C1057.61 129.47 1057.8 128.21 1058.19 127.11C1058.58 126.01 1059.13 125.08 1059.85 124.33C1060.56 123.58 1061.42 123 1062.43 122.6C1063.43 122.2 1064.55 122 1065.79 122C1067.02 122 1068.14 122.2 1069.15 122.61C1070.15 123.01 1071.01 123.6 1071.73 124.37C1072.44 125.15 1072.99 126.1 1073.38 127.22C1073.77 128.34 1073.96 129.63 1073.96 131.08L1073.96 132.4L1061.03 132.4C1061.07 134.11 1061.52 135.43 1062.35 136.37C1063.19 137.31 1064.33 137.78 1065.79 137.78C1066.95 137.78 1067.91 137.56 1068.66 137.13C1069.41 136.69 1069.98 136 1070.37 135.03L1073.78 135.03C1073.35 136.92 1072.46 138.34 1071.11 139.31C1069.77 140.27 1068.05 140.76 1065.97 140.76ZM1065.79 124.98C1064.41 124.98 1063.32 125.38 1062.52 126.18C1061.72 126.98 1061.23 128.15 1061.06 129.67L1070.55 129.67C1070.26 126.55 1068.67 124.98 1065.79 124.98Z" />
					<path id="&lt;Compound Path&gt;" class="shp0" d="M1078.33 122.29L1090.5 122.29L1090.5 125.27L1081.6 125.27L1081.6 140.46L1078.33 140.46L1078.33 122.29Z" />
					<path id="&lt;Compound Path&gt;" fill-rule="evenodd" class="shp0" d="M1101.04 140.76C1098.44 140.76 1096.4 139.99 1094.91 138.47C1093.42 136.94 1092.68 134.75 1092.68 131.89L1092.68 130.87C1092.68 128.04 1093.43 125.85 1094.93 124.31C1096.43 122.77 1098.47 122 1101.04 122C1103.63 122 1105.67 122.77 1107.16 124.29C1108.65 125.82 1109.4 128.01 1109.4 130.87L1109.4 131.89C1109.4 134.72 1108.64 136.91 1107.14 138.45C1105.64 139.99 1103.61 140.76 1101.04 140.76ZM1101.04 137.78C1102.56 137.78 1103.77 137.3 1104.65 136.34C1105.54 135.38 1105.98 133.9 1105.98 131.89L1105.98 130.87C1105.98 128.88 1105.54 127.41 1104.65 126.44C1103.77 125.47 1102.56 124.98 1101.04 124.98C1099.51 124.98 1098.3 125.46 1097.42 126.42C1096.54 127.38 1096.09 128.86 1096.09 130.87L1096.09 131.89C1096.09 133.87 1096.54 135.35 1097.42 136.32C1098.3 137.29 1099.51 137.78 1101.04 137.78Z" />
					<path id="&lt;Compound Path&gt;" class="shp0" d="M580.09 164.5L594.99 164.5L594.99 182.67L591.72 182.67L591.72 167.48L583.36 167.48L583.36 182.67L580.09 182.67L580.09 164.5Z" />
					<path id="&lt;Compound Path&gt;" fill-rule="evenodd" class="shp0" d="M600.44 164.5L602.99 164.5L603.35 167.04L603.42 167.04C604.27 166.02 605.16 165.3 606.09 164.86C607.02 164.42 608.15 164.21 609.45 164.21C610.54 164.21 611.54 164.39 612.43 164.77C613.33 165.14 614.11 165.7 614.76 166.44C615.41 167.18 615.92 168.1 616.27 169.2C616.62 170.31 616.8 171.6 616.8 173.07L616.8 174.09C616.8 175.54 616.61 176.82 616.25 177.92C615.89 179.03 615.38 179.95 614.72 180.71C614.07 181.46 613.29 182.02 612.4 182.4C611.5 182.77 610.52 182.96 609.45 182.96C608.22 182.96 607.16 182.76 606.27 182.38C605.39 181.99 604.56 181.36 603.78 180.49L603.71 180.49L603.71 189.94L600.44 189.94L600.44 164.5ZM608.55 179.98C610.02 179.98 611.2 179.5 612.07 178.54C612.94 177.59 613.38 176.1 613.38 174.09L613.38 173.07C613.38 171.11 612.94 169.64 612.05 168.66C611.17 167.68 610 167.19 608.55 167.19C607.07 167.19 605.89 167.66 605.02 168.62C604.15 169.58 603.71 171.06 603.71 173.07L603.71 174.09C603.71 176.05 604.15 177.53 605.04 178.51C605.92 179.49 607.09 179.98 608.55 179.98Z" />
					<path id="&lt;Compound Path&gt;" fill-rule="evenodd" class="shp0" d="M628.42 182.96C627.14 182.96 625.98 182.76 624.95 182.36C623.92 181.96 623.04 181.38 622.32 180.61C621.59 179.85 621.03 178.92 620.65 177.83C620.26 176.74 620.06 175.5 620.06 174.09L620.06 173.07C620.06 171.67 620.26 170.41 620.65 169.31C621.03 168.21 621.58 167.28 622.3 166.53C623.01 165.78 623.87 165.21 624.88 164.81C625.88 164.41 627.01 164.21 628.24 164.21C629.48 164.21 630.6 164.41 631.6 164.81C632.61 165.21 633.47 165.8 634.18 166.58C634.9 167.35 635.45 168.3 635.84 169.42C636.22 170.54 636.42 171.83 636.42 173.29L636.42 174.6L623.48 174.6C623.53 176.31 623.97 177.63 624.81 178.57C625.64 179.51 626.79 179.98 628.24 179.98C629.4 179.98 630.36 179.76 631.11 179.33C631.86 178.9 632.43 178.2 632.82 177.24L636.24 177.24C635.8 179.12 634.91 180.54 633.56 181.51C632.22 182.48 630.51 182.96 628.42 182.96ZM628.24 167.19C626.86 167.19 625.77 167.59 624.97 168.39C624.17 169.18 623.69 170.35 623.52 171.87L633 171.87C632.71 168.75 631.12 167.19 628.24 167.19Z" />
					<path id="&lt;Compound Path&gt;" fill-rule="evenodd" class="shp0" d="M638.6 179.69L640.42 179.69C640.8 179.16 641.12 178.59 641.38 178C641.63 177.4 641.84 176.74 642 176C642.15 175.26 642.26 174.4 642.32 173.42C642.38 172.44 642.41 171.28 642.41 169.95L642.41 164.5L655.5 164.5L655.5 179.69L657.68 179.69L657.68 187.39L654.55 187.39L654.55 182.67L641.72 182.67L641.72 187.39L638.6 187.39L638.6 179.69ZM652.23 179.69L652.23 167.48L645.54 167.48L645.54 169.95C645.54 171.14 645.52 172.2 645.47 173.13C645.42 174.06 645.33 174.91 645.21 175.67C645.09 176.44 644.93 177.14 644.74 177.78C644.55 178.42 644.32 179.03 644.05 179.62L644.05 179.69L652.23 179.69Z" />
					<path id="&lt;Compound Path&gt;" class="shp0" d="M661.13 164.5L676.03 164.5L676.03 182.67L672.76 182.67L672.76 167.48L664.4 167.48L664.4 182.67L661.13 182.67L661.13 164.5Z" />
					<path id="&lt;Compound Path&gt;" fill-rule="evenodd" class="shp0" d="M681.48 164.5L684.03 164.5L684.39 167.04L684.46 167.04C685.31 166.02 686.2 165.3 687.13 164.86C688.06 164.42 689.19 164.21 690.49 164.21C691.59 164.21 692.58 164.39 693.47 164.77C694.37 165.14 695.15 165.7 695.8 166.44C696.45 167.18 696.96 168.1 697.31 169.2C697.66 170.31 697.84 171.6 697.84 173.07L697.84 174.09C697.84 175.54 697.65 176.82 697.29 177.92C696.93 179.03 696.42 179.95 695.76 180.71C695.11 181.46 694.33 182.02 693.44 182.4C692.54 182.77 691.56 182.96 690.49 182.96C689.26 182.96 688.2 182.76 687.31 182.38C686.43 181.99 685.6 181.36 684.82 180.49L684.75 180.49L684.75 189.94L681.48 189.94L681.48 164.5ZM689.59 179.98C691.06 179.98 692.24 179.5 693.11 178.54C693.98 177.59 694.42 176.1 694.42 174.09L694.42 173.07C694.42 171.11 693.98 169.64 693.09 168.66C692.21 167.68 691.04 167.19 689.59 167.19C688.11 167.19 686.93 167.66 686.06 168.62C685.19 169.58 684.75 171.06 684.75 173.07L684.75 174.09C684.75 176.05 685.19 177.53 686.08 178.51C686.96 179.49 688.13 179.98 689.59 179.98Z" />
					<path id="&lt;Compound Path&gt;" class="shp0" d="M702.2 164.5L705.47 164.5L705.47 178.67L705.54 178.67L713.46 164.5L717.82 164.5L717.82 182.67L714.55 182.67L714.55 168.49L714.48 168.49L706.56 182.67L702.2 182.67L702.2 164.5Z" />
					<path id="&lt;Compound Path&gt;" class="shp0" d="M723.27 164.5L726.54 164.5L726.54 171.91L735.63 171.91L735.63 164.5L738.9 164.5L738.9 182.67L735.63 182.67L735.63 174.89L726.54 174.89L726.54 182.67L723.27 182.67L723.27 164.5Z" />
					<path id="&lt;Compound Path&gt;" class="shp0" d="M744.35 164.5L747.62 164.5L747.62 178.67L747.69 178.67L755.62 164.5L759.98 164.5L759.98 182.67L756.71 182.67L756.71 168.49L756.63 168.49L748.71 182.67L744.35 182.67L744.35 164.5Z" />
					<path id="&lt;Compound Path&gt;" class="shp0" d="M765.43 164.5L770.3 164.5L775.13 174.85L775.2 174.85L780.04 164.5L784.69 164.5L784.69 182.67L781.42 182.67L781.42 168.49L781.35 168.49L776.69 178.49L773.42 178.49L768.77 168.49L768.7 168.49L768.7 182.67L765.43 182.67L765.43 164.5Z" />
					<path id="&lt;Compound Path&gt;" fill-rule="evenodd" class="shp0" d="M795.05 182.96C792.99 182.96 791.44 182.47 790.41 181.5C789.38 180.54 788.87 179.21 788.87 177.54C788.87 175.73 789.48 174.29 790.7 173.24C791.93 172.18 793.92 171.66 796.68 171.66L800.86 171.66L800.86 170.67C800.86 169.49 800.55 168.61 799.94 168.04C799.32 167.47 798.29 167.19 796.86 167.19C795.56 167.19 794.6 167.41 793.99 167.86C793.39 168.31 793.04 168.88 792.94 169.58L789.6 169.58C789.64 168.83 789.83 168.13 790.16 167.48C790.49 166.82 790.95 166.25 791.56 165.77C792.16 165.28 792.91 164.9 793.79 164.62C794.68 164.35 795.7 164.21 796.86 164.21C799.36 164.21 801.19 164.76 802.37 165.88C803.54 166.99 804.13 168.65 804.13 170.86L804.13 182.67L801.59 182.67L801.19 179.94L801.12 179.94C799.64 181.95 797.61 182.96 795.05 182.96ZM795.41 179.98C796.16 179.98 796.87 179.85 797.54 179.59C798.2 179.34 798.78 178.98 799.28 178.53C799.78 178.08 800.17 177.56 800.44 176.96C800.72 176.36 800.86 175.72 800.86 175.04L800.86 174.38L796.86 174.38C795.17 174.38 793.98 174.67 793.3 175.24C792.62 175.81 792.29 176.56 792.29 177.49C792.29 178.22 792.55 178.82 793.07 179.28C793.59 179.75 794.37 179.98 795.41 179.98Z" />
					<path id="&lt;Compound Path&gt;" class="shp0" d="M813.04 167.48L807.22 167.48L807.22 164.5L822.12 164.5L822.12 167.48L816.31 167.48L816.31 182.67L813.04 182.67L813.04 167.48Z" />
					<path id="&lt;Compound Path&gt;" fill-rule="evenodd" class="shp0" d="M832.66 182.96C831.38 182.96 830.22 182.76 829.19 182.36C828.16 181.96 827.28 181.38 826.55 180.61C825.83 179.85 825.27 178.92 824.88 177.83C824.5 176.74 824.3 175.5 824.3 174.09L824.3 173.07C824.3 171.67 824.5 170.41 824.88 169.31C825.27 168.21 825.82 167.28 826.54 166.53C827.25 165.78 828.11 165.21 829.12 164.81C830.12 164.41 831.24 164.21 832.48 164.21C833.71 164.21 834.83 164.41 835.84 164.81C836.84 165.21 837.71 165.8 838.42 166.58C839.13 167.35 839.69 168.3 840.07 169.42C840.46 170.54 840.65 171.83 840.65 173.29L840.65 174.6L827.72 174.6C827.77 176.31 828.21 177.63 829.04 178.57C829.88 179.51 831.02 179.98 832.48 179.98C833.64 179.98 834.6 179.76 835.35 179.33C836.1 178.9 836.67 178.2 837.06 177.24L840.47 177.24C840.04 179.12 839.15 180.54 837.8 181.51C836.46 182.48 834.74 182.96 832.66 182.96ZM832.48 167.19C831.1 167.19 830.01 167.59 829.21 168.39C828.41 169.18 827.92 170.35 827.75 171.87L837.24 171.87C836.95 168.75 835.36 167.19 832.48 167.19Z" />
					<path id="&lt;Compound Path&gt;" class="shp0" d="M842.84 179.98L843.38 179.98C844.08 179.98 844.63 179.75 845.03 179.29C845.43 178.83 845.73 178.17 845.91 177.31C846.09 176.45 846.2 175.41 846.23 174.2C846.27 172.99 846.29 171.63 846.29 170.13L846.29 164.5L859.37 164.5L859.37 182.67L856.1 182.67L856.1 167.48L849.56 167.48L849.56 170.13C849.56 171.8 849.52 173.41 849.45 174.96C849.38 176.51 849.15 177.88 848.76 179.07C848.37 180.26 847.76 181.2 846.92 181.9C846.09 182.61 844.91 182.96 843.38 182.96L842.84 182.96L842.84 179.98Z" />
					<path id="&lt;Compound Path&gt;" fill-rule="evenodd" class="shp0" d="M864.82 164.5L868.09 164.5L868.09 170.31L871.73 170.31C874.22 170.31 876.06 170.86 877.23 171.95C878.41 173.04 879 174.55 879 176.49C879 178.4 878.4 179.91 877.21 181.01C876.03 182.12 874.2 182.67 871.73 182.67L864.82 182.67L864.82 164.5ZM868.09 173.29L868.09 179.69L871.54 179.69C873.02 179.69 874.06 179.42 874.67 178.89C875.28 178.36 875.58 177.56 875.58 176.49C875.58 175.45 875.27 174.65 874.65 174.11C874.03 173.56 873 173.29 871.54 173.29L868.09 173.29Z" />
					<path id="&lt;Compound Path&gt;" class="shp0" d="M889.53 182.96C887.09 182.96 885.14 182.19 883.7 180.67C882.26 179.14 881.54 176.89 881.54 173.91L881.54 172.89C881.54 171.51 881.73 170.29 882.12 169.22C882.51 168.16 883.05 167.25 883.74 166.5C884.43 165.74 885.26 165.18 886.24 164.79C887.23 164.4 888.32 164.21 889.53 164.21C890.67 164.21 891.68 164.36 892.57 164.66C893.45 164.96 894.21 165.37 894.84 165.88C895.47 166.39 895.98 166.99 896.37 167.69C896.75 168.4 897.02 169.15 897.16 169.95L893.75 169.95C893.48 169.17 893.03 168.52 892.39 167.99C891.74 167.45 890.85 167.19 889.72 167.19C888.26 167.19 887.1 167.65 886.24 168.59C885.38 169.52 884.95 170.95 884.95 172.89L884.95 173.91C884.95 176.02 885.38 177.56 886.24 178.52C887.1 179.49 888.26 179.98 889.72 179.98C890.85 179.98 891.74 179.69 892.39 179.12C893.03 178.56 893.48 177.8 893.75 176.85L897.16 176.85C897.02 177.75 896.75 178.57 896.37 179.31C895.98 180.04 895.47 180.69 894.84 181.23C894.21 181.78 893.45 182.2 892.57 182.5C891.68 182.81 890.67 182.96 889.53 182.96Z" />
					<path id="&lt;Compound Path&gt;" class="shp0" d="M904.62 167.48L898.8 167.48L898.8 164.5L913.7 164.5L913.7 167.48L907.89 167.48L907.89 182.67L904.62 182.67L904.62 167.48Z" />
					<path id="&lt;Compound Path&gt;" fill-rule="evenodd" class="shp0" d="M916.97 164.5L924.06 164.5C926.43 164.5 928.15 164.96 929.2 165.88C930.25 166.79 930.78 168.02 930.78 169.54C930.78 170.31 930.59 171.01 930.2 171.63C929.81 172.24 929.25 172.76 928.53 173.17L928.53 173.24C929.47 173.63 930.21 174.18 930.73 174.9C931.25 175.61 931.51 176.44 931.51 177.39C931.51 179.04 930.98 180.33 929.93 181.27C928.87 182.2 927.16 182.67 924.78 182.67L916.97 182.67L916.97 164.5ZM927.37 169.73C927.37 169.03 927.12 168.48 926.62 168.08C926.12 167.68 925.21 167.48 923.88 167.48L920.24 167.48L920.24 172.02L923.88 172.02C925.21 172.02 926.12 171.82 926.62 171.42C927.12 171.02 927.37 170.46 927.37 169.73ZM928.09 177.2C928.09 176.42 927.84 175.81 927.33 175.39C926.82 174.96 925.91 174.75 924.6 174.75L920.24 174.75L920.24 179.69L924.6 179.69C925.91 179.69 926.82 179.47 927.33 179.05C927.84 178.62 928.09 178 928.09 177.2Z" />
					<path id="&lt;Compound Path&gt;" fill-rule="evenodd" class="shp0" d="M940.77 182.96C938.71 182.96 937.17 182.47 936.14 181.5C935.11 180.54 934.6 179.21 934.6 177.54C934.6 175.73 935.21 174.29 936.43 173.24C937.65 172.18 939.65 171.66 942.41 171.66L946.59 171.66L946.59 170.67C946.59 169.49 946.28 168.61 945.66 168.04C945.04 167.47 944.02 167.19 942.59 167.19C941.28 167.19 940.32 167.41 939.72 167.86C939.11 168.31 938.76 168.88 938.67 169.58L935.32 169.58C935.37 168.83 935.56 168.13 935.89 167.48C936.21 166.82 936.68 166.25 937.29 165.77C937.89 165.28 938.64 164.9 939.52 164.62C940.4 164.35 941.43 164.21 942.59 164.21C945.09 164.21 946.92 164.76 948.1 165.88C949.27 166.99 949.86 168.65 949.86 170.86L949.86 182.67L947.32 182.67L946.92 179.94L946.84 179.94C945.36 181.95 943.34 182.96 940.77 182.96ZM941.14 179.98C941.89 179.98 942.6 179.85 943.26 179.59C943.93 179.34 944.51 178.98 945.01 178.53C945.5 178.08 945.89 177.56 946.17 176.96C946.45 176.36 946.59 175.72 946.59 175.04L946.59 174.38L942.59 174.38C940.89 174.38 939.71 174.67 939.03 175.24C938.35 175.81 938.01 176.56 938.01 177.49C938.01 178.22 938.27 178.82 938.79 179.28C939.31 179.75 940.1 179.98 941.14 179.98Z" />
				</g>
			</g>
		</g>
	</g>
</svg>