<svg width="14" height="13" viewBox="0 0 14 13" fill="none" xmlns="http://www.w3.org/2000/svg">
<path d="M6.3 4.19226H10.5C10.6983 4.19226 10.8645 4.12541 10.9984 3.99173C11.1328 3.85758 11.2 3.69152 11.2 3.49355C11.2 3.29558 11.1328 3.12952 10.9984 2.99537C10.8645 2.86168 10.6983 2.79484 10.5 2.79484H6.3C6.10167 2.79484 5.93553 2.86168 5.8016 2.99537C5.6672 3.12952 5.6 3.29558 5.6 3.49355C5.6 3.69152 5.6672 3.85758 5.8016 3.99173C5.93553 4.12541 6.10167 4.19226 6.3 4.19226ZM6.3 6.28839H10.5C10.6983 6.28839 10.8645 6.22131 10.9984 6.08716C11.1328 5.95347 11.2 5.78764 11.2 5.58968C11.2 5.39171 11.1328 5.22565 10.9984 5.0915C10.8645 4.95781 10.6983 4.89097 10.5 4.89097H6.3C6.10167 4.89097 5.93553 4.95781 5.8016 5.0915C5.6672 5.22565 5.6 5.39171 5.6 5.58968C5.6 5.78764 5.6672 5.95347 5.8016 6.08716C5.93553 6.22131 6.10167 6.28839 6.3 6.28839ZM6.3 8.38452H8.4C8.59833 8.38452 8.7647 8.31744 8.8991 8.18329C9.03303 8.0496 9.1 7.88377 9.1 7.68581C9.1 7.48784 9.03303 7.32178 8.8991 7.18763C8.7647 7.05394 8.59833 6.9871 8.4 6.9871H6.3C6.10167 6.9871 5.93553 7.05394 5.8016 7.18763C5.6672 7.32178 5.6 7.48784 5.6 7.68581C5.6 7.88377 5.6672 8.0496 5.8016 8.18329C5.93553 8.31744 6.10167 8.38452 6.3 8.38452ZM3.5 4.19226C3.69833 4.19226 3.8647 4.12541 3.9991 3.99173C4.13303 3.85758 4.2 3.69152 4.2 3.49355C4.2 3.29558 4.13303 3.12952 3.9991 2.99537C3.8647 2.86168 3.69833 2.79484 3.5 2.79484C3.30167 2.79484 3.1353 2.86168 3.0009 2.99537C2.86697 3.12952 2.8 3.29558 2.8 3.49355C2.8 3.69152 2.86697 3.85758 3.0009 3.99173C3.1353 4.12541 3.30167 4.19226 3.5 4.19226ZM3.5 6.28839C3.69833 6.28839 3.8647 6.22131 3.9991 6.08716C4.13303 5.95347 4.2 5.78764 4.2 5.58968C4.2 5.39171 4.13303 5.22565 3.9991 5.0915C3.8647 4.95781 3.69833 4.89097 3.5 4.89097C3.30167 4.89097 3.1353 4.95781 3.0009 5.0915C2.86697 5.22565 2.8 5.39171 2.8 5.58968C2.8 5.78764 2.86697 5.95347 3.0009 6.08716C3.1353 6.22131 3.30167 6.28839 3.5 6.28839ZM3.5 8.38452C3.69833 8.38452 3.8647 8.31744 3.9991 8.18329C4.13303 8.0496 4.2 7.88377 4.2 7.68581C4.2 7.48784 4.13303 7.32178 3.9991 7.18763C3.8647 7.05394 3.69833 6.9871 3.5 6.9871C3.30167 6.9871 3.1353 7.05394 3.0009 7.18763C2.86697 7.32178 2.8 7.48784 2.8 7.68581C2.8 7.88377 2.86697 8.0496 3.0009 8.18329C3.1353 8.31744 3.30167 8.38452 3.5 8.38452ZM0 12.2798V1.39742C0 1.01313 0.1372 0.684037 0.4116 0.410143C0.685533 0.136714 1.015 0 1.4 0H12.6C12.985 0 13.3147 0.136714 13.5891 0.410143C13.863 0.684037 14 1.01313 14 1.39742V9.78194C14 10.1662 13.863 10.4953 13.5891 10.7692C13.3147 11.0426 12.985 11.1794 12.6 11.1794H2.8L1.19 12.7864C0.968333 13.0076 0.714467 13.057 0.4284 12.9345C0.1428 12.8125 0 12.5942 0 12.2798ZM1.4 10.6029L2.2225 9.78194H12.6V1.39742H1.4V10.6029ZM1.4 1.39742V10.6029V1.39742Z" fill="#077EFA"/>
</svg>
