<svg width="18" height="11" viewBox="0 0 18 11" fill="none" xmlns="http://www.w3.org/2000/svg">
<path fill-rule="evenodd" clip-rule="evenodd" d="M10.3871 0C10.1783 0 9.97795 0.0805979 9.83026 0.224063C9.68258 0.367529 9.59961 0.562109 9.59961 0.765C9.59961 0.967891 9.68258 1.16247 9.83026 1.30594C9.97795 1.4494 10.1783 1.53 10.3871 1.53H17.2121C17.421 1.53 17.6213 1.4494 17.769 1.30594C17.9166 1.16247 17.9996 0.967891 17.9996 0.765C17.9996 0.562109 17.9166 0.367529 17.769 0.224063C17.6213 0.0805979 17.421 0 17.2121 0H10.3871ZM10.3871 4.335C10.1783 4.335 9.97795 4.4156 9.83026 4.55906C9.68258 4.70253 9.59961 4.89711 9.59961 5.1C9.59961 5.30289 9.68258 5.49747 9.83026 5.64094C9.97795 5.7844 10.1783 5.865 10.3871 5.865H17.2121C17.421 5.865 17.6213 5.7844 17.769 5.64094C17.9166 5.49747 17.9996 5.30289 17.9996 5.1C17.9996 4.89711 17.9166 4.70253 17.769 4.55906C17.6213 4.4156 17.421 4.335 17.2121 4.335H10.3871ZM9.59961 9.435C9.59961 9.23211 9.68258 9.03753 9.83026 8.89406C9.97795 8.7506 10.1783 8.67 10.3871 8.67H17.2121C17.421 8.67 17.6213 8.7506 17.769 8.89406C17.9166 9.03753 17.9996 9.23211 17.9996 9.435C17.9996 9.63789 17.9166 9.83247 17.769 9.97594C17.6213 10.1194 17.421 10.2 17.2121 10.2H10.3871C10.1783 10.2 9.97795 10.1194 9.83026 9.97594C9.68258 9.83247 9.59961 9.63789 9.59961 9.435Z" fill="#077EFA"/>
<path d="M3.51172 2.39751C3.51172 2.23325 3.64488 2.1001 3.80913 2.1001V2.1001C3.97339 2.1001 4.10655 2.23325 4.10655 2.39751V8.70268C4.10655 8.86694 3.97339 9.0001 3.80913 9.0001V9.0001C3.64488 9.0001 3.51172 8.86694 3.51172 8.70268V2.39751Z" fill="#077EFA"/>
<path fill-rule="evenodd" clip-rule="evenodd" d="M3.21289 2.39746C3.21289 2.06752 3.48036 1.80005 3.8103 1.80005C4.14025 1.80005 4.40772 2.06752 4.40772 2.39746V8.70264C4.40772 9.03258 4.14025 9.30005 3.8103 9.30005C3.48036 9.30005 3.21289 9.03258 3.21289 8.70264V2.39746Z" fill="#077EFA"/>
<path d="M6.90181 5.19312C7.06606 5.19312 7.19922 5.32627 7.19922 5.49053V5.49053C7.19922 5.65479 7.06606 5.78794 6.9018 5.78794L0.596632 5.78794C0.432375 5.78794 0.299218 5.65479 0.299218 5.49053V5.49053C0.299218 5.32627 0.432375 5.19311 0.596632 5.19311L6.90181 5.19312Z" fill="#077EFA"/>
<path fill-rule="evenodd" clip-rule="evenodd" d="M6.90259 4.89307C7.23253 4.89307 7.5 5.16054 7.5 5.49048C7.5 5.82042 7.23253 6.08789 6.90259 6.08789L0.597413 6.08789C0.26747 6.08789 -3.38559e-07 5.82042 -3.24137e-07 5.49048C-3.09715e-07 5.16054 0.267471 4.89307 0.597413 4.89307L6.90259 4.89307Z" fill="#077EFA"/>
</svg>
