<svg width="15" height="15" viewBox="0 0 15 15" fill="none" xmlns="http://www.w3.org/2000/svg">
<path d="M0.771085 14.2395C0.832153 14.2469 0.893887 14.2469 0.954954 14.2395L4.01943 13.4734C4.15537 13.4411 4.27989 13.3722 4.3795 13.2742L13.7951 3.82797C14.0805 3.54088 14.2407 3.15254 14.2407 2.74774C14.2407 2.34295 14.0805 1.9546 13.7951 1.66751L12.5846 0.449385C12.4423 0.306923 12.2733 0.193907 12.0873 0.116798C11.9013 0.039689 11.7019 0 11.5006 0C11.2992 0 11.0998 0.039689 10.9138 0.116798C10.7278 0.193907 10.5588 0.306923 10.4165 0.449385L1.00092 9.86498C0.90193 9.96505 0.830648 10.0891 0.794069 10.2251L0.0279503 13.2895C0.00041442 13.3887 -0.0068737 13.4923 0.00652067 13.5943C0.019915 13.6963 0.0537176 13.7946 0.105912 13.8833C0.158106 13.9719 0.227623 14.0491 0.310315 14.1104C0.393007 14.1716 0.48718 14.2155 0.587217 14.2395C0.648284 14.2469 0.710018 14.2469 0.771085 14.2395ZM11.4967 1.52961L12.7149 2.74774L11.4967 3.96587L10.2863 2.74774L11.4967 1.52961ZM2.23437 10.7996L9.19839 3.82797L10.4165 5.0461L3.44484 12.0178L1.82833 12.4162L2.23437 10.7996Z" fill="#077EFA"/>
</svg>
