<svg width="185" height="19" viewBox="0 0 185 19" fill="none" xmlns="http://www.w3.org/2000/svg">
<path d="M13.201 17.512C12.3882 18.4857 10.9455 18.6117 9.97217 17.7984C8.99904 16.9851 8.873 15.5418 9.68602 14.5683L14.2659 7.69528C15.0788 6.72154 16.5214 6.59559 17.4947 7.4089C18.4679 8.22221 18.5939 9.66548 17.7809 10.639L13.201 17.512Z" fill="url(#paint0_linear_68_81)"/>
<path d="M20.6093 18.3253C21.8741 18.3253 22.8992 17.2997 22.8992 16.0345C22.8992 14.7692 21.8741 13.7434 20.6093 13.7434C19.3445 13.7434 18.3193 14.7692 18.3193 16.0345C18.3193 17.2997 19.3445 18.3253 20.6093 18.3253Z" fill="url(#paint1_linear_68_81)"/>
<path d="M2.28994 18.3253C3.55473 18.3253 4.57989 17.2997 4.57989 16.0345C4.57989 14.7692 3.55473 13.7434 2.28994 13.7434C1.02516 13.7434 0 14.7692 0 16.0345C0 17.2997 1.02516 18.3253 2.28994 18.3253Z" fill="url(#paint2_linear_68_81)"/>
<path d="M8.6219 10.639C7.80906 11.6127 6.36639 11.7386 5.39307 10.9253C4.41994 10.112 4.2939 8.66875 5.10692 7.6952L9.68681 0.822233C10.4997 -0.1515 11.9423 -0.277456 12.9156 0.535852C13.8888 1.34916 14.0148 2.79243 13.2018 3.76598L8.6219 10.639Z" fill="url(#paint3_linear_68_81)"/>
<path d="M40.8898 0.751709H52.5337V17.8723H49.1996V3.62652H44.224V11.2242C44.224 11.8746 44.2154 12.3623 44.1983 12.6873C44.1813 13.0124 44.1214 13.4744 44.0188 14.0734C43.9162 14.6724 43.7281 15.2028 43.4546 15.6648C43.1811 16.1098 42.822 16.5205 42.3774 16.8969C41.4883 17.6499 40.3512 18.0263 38.9663 18.0263C38.4876 18.0263 38.0173 17.9749 37.5557 17.8723V14.9974C37.8977 15.1001 38.2139 15.1514 38.5046 15.1514C39.1202 15.1514 39.6331 14.9461 40.0435 14.5354C40.317 14.2617 40.5137 13.8851 40.6333 13.406C40.7702 12.9269 40.8471 12.5163 40.8642 12.174C40.8812 11.8317 40.8898 11.2926 40.8898 10.5569V0.751709Z" fill="#172359"/>
<path d="M58.1485 2.88216C59.8582 1.20513 62.0555 0.366699 64.7398 0.366699C67.4242 0.366699 69.6128 1.20513 71.3056 2.88216C73.0153 4.5592 73.8703 6.70669 73.8703 9.32482C73.8703 11.943 73.0153 14.0905 71.3056 15.7675C69.6128 17.4273 67.4242 18.2573 64.7398 18.2573C62.0555 18.2573 59.8582 17.4273 58.1485 15.7675C56.4557 14.0905 55.6094 11.943 55.6094 9.32482C55.6094 6.70669 56.4557 4.5592 58.1485 2.88216ZM60.6363 13.5857C61.6964 14.6808 63.0641 15.2285 64.7398 15.2285C66.4155 15.2285 67.7833 14.6808 68.8434 13.5857C69.9036 12.4734 70.4336 11.0532 70.4336 9.32482C70.4336 7.59645 69.895 6.17628 68.8178 5.06394C67.7576 3.9516 66.3983 3.39552 64.7398 3.39552C63.0814 3.39552 61.7135 3.9516 60.6363 5.06394C59.5761 6.17628 59.0461 7.59645 59.0461 9.32482C59.0461 11.0532 59.5761 12.4734 60.6363 13.5857Z" fill="#172359"/>
<path d="M86.0225 0.751709V3.62652H80.2775V17.8723H76.9434V0.751709H86.0225Z" fill="#172359"/>
<path d="M88.1133 0.75172H91.4474V12.251L100.886 0.366699H103.194V17.8723H99.8598V6.32167L90.4215 18.2059H88.1133V0.75172Z" fill="#172359"/>
<path d="M119.511 13.3547V17.2562C118.246 17.9236 116.835 18.2573 115.28 18.2573C112.783 18.2573 110.697 17.4616 109.022 15.8702C107.192 14.1077 106.277 11.9259 106.277 9.32482C106.277 6.55268 107.192 4.31957 109.022 2.62548C110.629 1.11969 112.723 0.366699 115.305 0.366699C116.81 0.366699 118.212 0.717432 119.511 1.41908V5.32062C118.4 4.03722 117.024 3.39552 115.382 3.39552C113.706 3.39552 112.339 3.98588 111.279 5.16661C110.236 6.33029 109.714 7.73341 109.714 9.37616C109.714 11.1729 110.295 12.6017 111.458 13.6627C112.621 14.7065 113.972 15.2285 115.51 15.2285C117.118 15.2285 118.451 14.6038 119.511 13.3547Z" fill="#172359"/>
<path d="M131.81 3.62652H127.963V17.8723H124.628V3.62652H120.781V0.751709H131.81V3.62652Z" fill="#172359"/>
<path d="M133.923 0.751476H137.257V12.2507L146.695 0.366455H149.004V17.872H145.669V6.32143L136.231 18.2057H133.923V0.751476Z" fill="#172359"/>
<path d="M156.242 0.751709V7.99008L162.526 0.751709H166.732L159.5 8.65745L167.117 17.8723H162.706L156.627 10.1975L156.242 10.5825V17.8723H152.908V0.751709H156.242Z" fill="#172359"/>
<path d="M180.856 17.8722L179.343 14.2787H172.444L170.931 17.8722H167.314L174.727 0.392334H177.24L184.447 17.8722H180.856ZM173.495 11.5579H178.368L175.958 5.39759L173.495 11.5579Z" fill="#172359"/>
<defs>
<linearGradient id="paint0_linear_68_81" x1="4.57945" y1="5.7249" x2="13.7392" y2="5.7249" gradientUnits="userSpaceOnUse">
<stop stop-color="#729EFB"/>
<stop offset="0.4688" stop-color="#6986FB"/>
<stop offset="1" stop-color="#5D66FA"/>
</linearGradient>
<linearGradient id="paint1_linear_68_81" x1="4.57967" y1="5.72491" x2="13.7394" y2="5.72491" gradientUnits="userSpaceOnUse">
<stop stop-color="#729EFB"/>
<stop offset="0.4688" stop-color="#6986FB"/>
<stop offset="1" stop-color="#5D66FA"/>
</linearGradient>
<linearGradient id="paint2_linear_68_81" x1="4.57989" y1="5.72491" x2="13.7397" y2="5.72491" gradientUnits="userSpaceOnUse">
<stop stop-color="#729EFB"/>
<stop offset="0.4688" stop-color="#6986FB"/>
<stop offset="1" stop-color="#5D66FA"/>
</linearGradient>
<linearGradient id="paint3_linear_68_81" x1="4.58023" y1="5.72482" x2="13.74" y2="5.72482" gradientUnits="userSpaceOnUse">
<stop stop-color="#729EFB"/>
<stop offset="0.4688" stop-color="#6986FB"/>
<stop offset="1" stop-color="#5D66FA"/>
</linearGradient>
</defs>
</svg>
