<svg width="15" height="18" viewBox="0 0 15 18" fill="none" xmlns="http://www.w3.org/2000/svg">
<path fill-rule="evenodd" clip-rule="evenodd" d="M2.7381 1.63636C2.44648 1.63636 2.17137 1.74716 1.97212 1.93735C1.77368 2.12677 1.66667 2.3787 1.66667 2.63636V15.3636C1.66667 15.6213 1.77368 15.8732 1.97212 16.0627C2.17137 16.2528 2.44648 16.3636 2.7381 16.3636H12.2619C12.5535 16.3636 12.8286 16.2528 13.0279 16.0627C13.2263 15.8732 13.3333 15.6213 13.3333 15.3636V6.64927C13.3333 6.63272 13.3267 6.61202 13.3068 6.59308L8.15053 1.67118C8.12993 1.65151 8.09704 1.63642 8.0581 1.63636M8.0581 1.63636H2.7381H8.0581ZM0.810326 0.764083C1.32551 0.272321 2.01936 0 2.7381 0H8.0581C8.5242 9.50477e-05 8.97592 0.1767 9.31242 0.497999L14.4684 5.41965C14.4685 5.41967 14.4684 5.41962 14.4684 5.41965C14.8058 5.7416 14.9999 6.18334 15 6.64891V15.3636C15 16.0704 14.7056 16.7434 14.1897 17.2359C13.6745 17.7277 12.9806 18 12.2619 18H2.7381C2.01936 18 1.32551 17.7277 0.810326 17.2359C0.294349 16.7434 0 16.0704 0 15.3636V2.63636C0 1.9296 0.294349 1.25661 0.810326 0.764083ZM10.3571 7.27273C10.8174 7.27273 11.1905 7.63904 11.1905 8.09091V13.5455C11.1905 13.9973 10.8174 14.3636 10.3571 14.3636C9.89691 14.3636 9.52381 13.9973 9.52381 13.5455V8.09091C9.52381 7.63904 9.89691 7.27273 10.3571 7.27273ZM7.5 9.09091C7.96024 9.09091 8.33333 9.45722 8.33333 9.90909V13.5455C8.33333 13.9973 7.96024 14.3636 7.5 14.3636C7.03976 14.3636 6.66667 13.9973 6.66667 13.5455V9.90909C6.66667 9.45722 7.03976 9.09091 7.5 9.09091ZM4.64286 10.9091C5.10309 10.9091 5.47619 11.2754 5.47619 11.7273V13.5455C5.47619 13.9973 5.10309 14.3636 4.64286 14.3636C4.18262 14.3636 3.80952 13.9973 3.80952 13.5455V11.7273C3.80952 11.2754 4.18262 10.9091 4.64286 10.9091Z" fill="#BEBEBE"/>
</svg>
