<svg width="10" height="10" viewBox="0 0 10 10" fill="none" xmlns="http://www.w3.org/2000/svg">
<path d="M6.66709 7.10693L7.52819 6.24549C7.64417 6.1309 7.79091 6.05246 7.95059 6.0197C8.11027 5.98693 8.27602 6.00124 8.42773 6.06089L9.47719 6.48008C9.6305 6.54233 9.76196 6.64859 9.85499 6.78547C9.94803 6.92234 9.99849 7.08371 10 7.24923V9.17209C9.99911 9.28469 9.97545 9.39594 9.93045 9.49914C9.88544 9.60235 9.82003 9.69538 9.73814 9.77263C9.65625 9.84988 9.55959 9.90975 9.45396 9.94864C9.34834 9.98753 9.23593 10.0046 9.12353 9.99893C1.7696 9.54128 0.285745 3.31119 0.00511948 0.926838C-0.00790734 0.809749 0.00399492 0.691228 0.0400432 0.579072C0.0760915 0.466915 0.135469 0.363666 0.214269 0.276115C0.293069 0.188564 0.389506 0.118697 0.497236 0.0711094C0.604965 0.0235219 0.721546 -0.000707292 0.839308 1.57171e-05H2.69605C2.86174 0.000506351 3.02349 0.0505746 3.1605 0.143781C3.29751 0.236987 3.40352 0.369068 3.46489 0.523036L3.8839 1.57292C3.94551 1.72408 3.96122 1.89006 3.92909 2.0501C3.89696 2.21015 3.8184 2.35718 3.70323 2.47282L2.84213 3.33427C2.84213 3.33427 3.33803 6.69159 6.66709 7.10693Z" fill="#729EFB"/>
</svg>
