<svg width="15" height="15" viewBox="0 0 15 15" fill="none" xmlns="http://www.w3.org/2000/svg">
<path d="M6.75 6.75H11.25C11.4625 6.75 11.6405 6.678 11.784 6.534C11.928 6.3905 12 6.2125 12 6C12 5.7875 11.928 5.60925 11.784 5.46525C11.6405 5.32175 11.4625 5.25 11.25 5.25H6.75C6.5375 5.25 6.3595 5.32175 6.216 5.46525C6.072 5.60925 6 5.7875 6 6C6 6.2125 6.072 6.3905 6.216 6.534C6.3595 6.678 6.5375 6.75 6.75 6.75ZM6.75 9H8.25C8.4625 9 8.64075 8.928 8.78475 8.784C8.92825 8.6405 9 8.4625 9 8.25C9 8.0375 8.92825 7.85925 8.78475 7.71525C8.64075 7.57175 8.4625 7.5 8.25 7.5H6.75C6.5375 7.5 6.3595 7.57175 6.216 7.71525C6.072 7.85925 6 8.0375 6 8.25C6 8.4625 6.072 8.6405 6.216 8.784C6.3595 8.928 6.5375 9 6.75 9ZM6.75 4.5H11.25C11.4625 4.5 11.6405 4.42825 11.784 4.28475C11.928 4.14075 12 3.9625 12 3.75C12 3.5375 11.928 3.35925 11.784 3.21525C11.6405 3.07175 11.4625 3 11.25 3H6.75C6.5375 3 6.3595 3.07175 6.216 3.21525C6.072 3.35925 6 3.5375 6 3.75C6 3.9625 6.072 4.14075 6.216 4.28475C6.3595 4.42825 6.5375 4.5 6.75 4.5ZM4.5 12C4.0875 12 3.7345 11.8533 3.441 11.5597C3.147 11.2657 3 10.9125 3 10.5V1.5C3 1.0875 3.147 0.73425 3.441 0.44025C3.7345 0.14675 4.0875 0 4.5 0H13.5C13.9125 0 14.2657 0.14675 14.5597 0.44025C14.8533 0.73425 15 1.0875 15 1.5V10.5C15 10.9125 14.8533 11.2657 14.5597 11.5597C14.2657 11.8533 13.9125 12 13.5 12H4.5ZM4.5 10.5H13.5V1.5H4.5V10.5ZM1.5 15C1.0875 15 0.7345 14.8533 0.441 14.5597C0.147 14.2657 0 13.9125 0 13.5V3.75C0 3.5375 0.0720001 3.35925 0.216 3.21525C0.3595 3.07175 0.5375 3 0.75 3C0.9625 3 1.14075 3.07175 1.28475 3.21525C1.42825 3.35925 1.5 3.5375 1.5 3.75V13.5H11.25C11.4625 13.5 11.6405 13.572 11.784 13.716C11.928 13.8595 12 14.0375 12 14.25C12 14.4625 11.928 14.6405 11.784 14.784C11.6405 14.928 11.4625 15 11.25 15H1.5ZM4.5 1.5V10.5V1.5Z" fill="#077EFA"/>
</svg>
