<svg width="15" height="14" viewBox="0 0 15 14" fill="none" xmlns="http://www.w3.org/2000/svg">
<path d="M3.1275 1.75843V2.54441H2.5C1.83696 2.54441 1.20107 2.81262 0.732233 3.29003C0.263392 3.76744 0 4.41494 0 5.0901V9.54505C0 10.0514 0.197544 10.537 0.549175 10.8951C0.900806 11.2532 1.37772 11.4543 1.875 11.4543H3.125V12.0907C3.125 12.5971 3.32254 13.0827 3.67417 13.4408C4.02581 13.7988 4.50272 14 5 14H10C10.4973 14 10.9742 13.7988 11.3258 13.4408C11.6775 13.0827 11.875 12.5971 11.875 12.0907V11.4543H13.125C13.6223 11.4543 14.0992 11.2532 14.4508 10.8951C14.8025 10.537 15 10.0514 15 9.54505V5.0901C15 4.41494 14.7366 3.76744 14.2678 3.29003C13.7989 2.81262 13.163 2.54441 12.5 2.54441H11.875V1.75016C11.875 1.52011 11.8305 1.29232 11.7439 1.07982C11.6574 0.86731 11.5306 0.674261 11.3707 0.511711C11.2108 0.34916 11.0211 0.220297 10.8123 0.132493C10.6034 0.0446895 10.3797 -0.000332764 10.1538 1.85158e-06L4.84375 0.00827534C4.38834 0.00894985 3.95181 0.193639 3.63003 0.521784C3.30824 0.849929 3.1275 1.2947 3.1275 1.75843ZM10.9375 1.75016V2.54441H4.065V1.75843C4.065 1.3193 4.41375 0.963544 4.845 0.962907L10.155 0.954634C10.2577 0.954466 10.3594 0.97492 10.4544 1.01482C10.5493 1.05473 10.6356 1.1133 10.7082 1.18719C10.7809 1.26108 10.8386 1.34883 10.8779 1.44543C10.9173 1.54203 10.9375 1.64558 10.9375 1.75016ZM5 7.954H10C10.2486 7.954 10.4871 8.05457 10.6629 8.2336C10.8387 8.41263 10.9375 8.65544 10.9375 8.90863V12.0907C10.9375 12.3439 10.8387 12.5867 10.6629 12.7658C10.4871 12.9448 10.2486 13.0454 10 13.0454H5C4.75136 13.0454 4.5129 12.9448 4.33709 12.7658C4.16127 12.5867 4.0625 12.3439 4.0625 12.0907V8.90863C4.0625 8.65544 4.16127 8.41263 4.33709 8.2336C4.5129 8.05457 4.75136 7.954 5 7.954Z" fill="#077EFA"/>
</svg>
