<svg width="90" height="90" viewBox="0 0 90 90" fill="none" xmlns="http://www.w3.org/2000/svg">
<g clip-path="url(#clip0_121_1237)">
<path d="M62.3077 38.0769C62.3077 31.4062 59.9369 25.7001 55.1953 20.9585C50.4537 16.2169 44.7476 13.8462 38.0769 13.8462C31.4062 13.8462 25.7001 16.2169 20.9585 20.9585C16.2169 25.7001 13.8462 31.4062 13.8462 38.0769C13.8462 44.7476 16.2169 50.4537 20.9585 55.1953C25.7001 59.9369 31.4062 62.3077 38.0769 62.3077C44.7476 62.3077 50.4537 59.9369 55.1953 55.1953C59.9369 50.4537 62.3077 44.7476 62.3077 38.0769ZM90 83.0769C90 84.9519 89.3149 86.5745 87.9447 87.9447C86.5745 89.3149 84.9519 90 83.0769 90C81.1298 90 79.5072 89.3149 78.2091 87.9447L59.6575 69.4471C53.2031 73.9183 46.0096 76.1538 38.0769 76.1538C32.9207 76.1538 27.9898 75.1532 23.2843 73.152C18.5787 71.1508 14.5222 68.4465 11.1148 65.0391C7.70733 61.6316 5.00301 57.5751 3.0018 52.8696C1.0006 48.1641 0 43.2332 0 38.0769C0 32.9207 1.0006 27.9898 3.0018 23.2843C5.00301 18.5787 7.70733 14.5222 11.1148 11.1148C14.5222 7.70733 18.5787 5.00301 23.2843 3.0018C27.9898 1.0006 32.9207 0 38.0769 0C43.2332 0 48.1641 1.0006 52.8696 3.0018C57.5751 5.00301 61.6316 7.70733 65.0391 11.1148C68.4465 14.5222 71.1508 18.5787 73.152 23.2843C75.1532 27.9898 76.1538 32.9207 76.1538 38.0769C76.1538 46.0096 73.9183 53.2031 69.4471 59.6575L87.9988 78.2091C89.3329 79.5433 90 81.1659 90 83.0769Z" fill="url(#paint0_linear_121_1237)"/>
</g>
<defs>
<linearGradient id="paint0_linear_121_1237" x1="8.5" y1="14" x2="110" y2="104" gradientUnits="userSpaceOnUse">
<stop stop-color="#077EFA"/>
<stop offset="1" stop-color="#077EFA" stop-opacity="0"/>
</linearGradient>
<clipPath id="clip0_121_1237">
<rect width="90" height="90" fill="white"/>
</clipPath>
</defs>
</svg>
