<svg width="18" height="19" viewBox="0 0 18 19" fill="none" xmlns="http://www.w3.org/2000/svg">
<path d="M10.5623 18.3333H7.22564C7.01658 18.3334 6.81379 18.2619 6.6509 18.1309C6.488 17.9998 6.3748 17.8171 6.33006 17.6128L5.95698 15.8858C5.45928 15.6678 4.98736 15.3951 4.54989 15.0728L2.86598 15.609C2.66666 15.6726 2.4516 15.666 2.2565 15.5905C2.06141 15.515 1.89802 15.375 1.79348 15.1938L0.121478 12.3053C0.0180275 12.124 -0.0208051 11.9128 0.0113331 11.7065C0.0434713 11.5002 0.144677 11.3109 0.298394 11.1696L1.60464 9.97792C1.54524 9.4381 1.54524 8.8934 1.60464 8.35358L0.298394 7.16467C0.14446 7.02329 0.043116 6.83382 0.0109725 6.6273C-0.0211709 6.42078 0.0177928 6.20947 0.121478 6.028L1.78981 3.13775C1.89436 2.95654 2.05774 2.81654 2.25284 2.74101C2.44793 2.66547 2.66299 2.65894 2.86231 2.7225L4.54623 3.25875C4.76989 3.09375 5.00273 2.93975 5.24289 2.80042C5.47481 2.67025 5.71314 2.552 5.95698 2.44658L6.33098 0.721417C6.3755 0.517181 6.48849 0.334297 6.65121 0.203086C6.81393 0.0718757 7.01661 0.000219969 7.22564 0H10.5623C10.7713 0.000219969 10.974 0.0718757 11.1367 0.203086C11.2995 0.334297 11.4125 0.517181 11.457 0.721417L11.8346 2.4475C12.3321 2.66557 12.8037 2.93828 13.2408 3.26058L14.9256 2.72433C15.1248 2.66101 15.3397 2.66766 15.5346 2.74318C15.7295 2.81871 15.8927 2.95857 15.9972 3.13958L17.6656 6.02983C17.8782 6.40292 17.8049 6.875 17.4886 7.16558L16.1824 8.35725C16.2418 8.89707 16.2418 9.44177 16.1824 9.98158L17.4886 11.1733C17.8049 11.4648 17.8782 11.9359 17.6656 12.309L15.9972 15.1993C15.8927 15.3805 15.7293 15.5205 15.5342 15.596C15.3391 15.6715 15.124 15.6781 14.9247 15.6145L13.2408 15.0782C12.8037 15.4003 12.3321 15.6727 11.8346 15.8904L11.457 17.6128C11.4123 17.8169 11.2992 17.9996 11.1365 18.1306C10.9738 18.2616 10.7712 18.3332 10.5623 18.3333ZM4.87898 13.0433L5.63064 13.5933C5.80023 13.7179 5.97623 13.8325 6.15956 13.937C6.33189 14.0369 6.50789 14.1267 6.69031 14.2083L7.54556 14.5833L7.96448 16.5H9.82531L10.2442 14.5823L11.0995 14.2074C11.4726 14.0424 11.8273 13.838 12.1564 13.5969L12.9081 13.0469L14.7799 13.6427L15.7103 12.0312L14.2592 10.7085L14.3619 9.78083C14.4077 9.37475 14.4077 8.965 14.3619 8.55983L14.2592 7.63217L15.7112 6.30667L14.7799 4.69425L12.909 5.29008L12.1564 4.74008C11.8271 4.4978 11.4728 4.29159 11.0995 4.125L10.2442 3.75008L9.82531 1.83333H7.96448L7.54281 3.751L6.69031 4.125C6.31648 4.28872 5.962 4.49348 5.63339 4.7355L4.88081 5.2855L3.01081 4.68967L2.07856 6.30667L3.52964 7.62758L3.42698 8.55617C3.38114 8.96225 3.38114 9.372 3.42698 9.77717L3.52964 10.7048L2.07856 12.0276L3.00898 13.6391L4.87898 13.0433ZM8.89031 12.8333C7.91785 12.8333 6.98522 12.447 6.29759 11.7594C5.60995 11.0718 5.22364 10.1391 5.22364 9.16667C5.22364 8.19421 5.60995 7.26158 6.29759 6.57394C6.98522 5.88631 7.91785 5.5 8.89031 5.5C9.86277 5.5 10.7954 5.88631 11.483 6.57394C12.1707 7.26158 12.557 8.19421 12.557 9.16667C12.557 10.1391 12.1707 11.0718 11.483 11.7594C10.7954 12.447 9.86277 12.8333 8.89031 12.8333ZM8.89031 7.33333C8.53131 7.3337 8.18031 7.43946 7.88086 7.63749C7.58142 7.83553 7.3467 8.11713 7.20584 8.44734C7.06499 8.77756 7.02418 9.14187 7.08849 9.49507C7.1528 9.84827 7.31939 10.1748 7.5676 10.4342C7.81581 10.6936 8.13471 10.8744 8.48474 10.9542C8.83477 11.0339 9.20052 11.0092 9.53662 10.883C9.87271 10.7568 10.1644 10.5347 10.3754 10.2443C10.5864 9.95382 10.7075 9.60781 10.7236 9.24917V9.61583V9.16667C10.7236 8.68044 10.5305 8.21412 10.1867 7.8703C9.84286 7.52649 9.37654 7.33333 8.89031 7.33333Z" fill="#BEBEBE"/>
</svg>
