<svg width="13" height="17" viewBox="0 0 13 17" fill="none" xmlns="http://www.w3.org/2000/svg">
<path d="M11.9167 0H1.08333C0.796015 0 0.520465 0.111942 0.317301 0.311199C0.114137 0.510456 0 0.780707 0 1.0625V15.9375C0 16.2193 0.114137 16.4895 0.317301 16.6888C0.520465 16.8881 0.796015 17 1.08333 17H11.9167C12.204 17 12.4795 16.8881 12.6827 16.6888C12.8859 16.4895 13 16.2193 13 15.9375V1.0625C13 0.780707 12.8859 0.510456 12.6827 0.311199C12.4795 0.111942 12.204 0 11.9167 0ZM3.79167 12.75H2.70833V11.6875H3.79167V12.75ZM3.79167 10.625H2.70833V9.5625H3.79167V10.625ZM3.79167 8.5H2.70833V7.4375H3.79167V8.5ZM3.79167 6.375H2.70833V5.3125H3.79167V6.375ZM3.79167 4.25H2.70833V3.1875H3.79167V4.25ZM10.2917 12.75H4.875V11.6875H10.2917V12.75ZM10.2917 10.625H4.875V9.5625H10.2917V10.625ZM10.2917 8.5H4.875V7.4375H10.2917V8.5ZM10.2917 6.375H4.875V5.3125H10.2917V6.375ZM10.2917 4.25H4.875V3.1875H10.2917V4.25Z" fill="#077EFA"/>
</svg>
